<svg version="1.1" xmlns="http://www.w3.org/2000/svg" xmlns:xlink="http://www.w3.org/1999/xlink" width="105.68122" height="128.34483" viewBox="0,0,105.68122,128.34483"><g transform="translate(-187.1594,-115.82758)"><g data-paper-data="{&quot;isPaintingLayer&quot;:true}" fill-rule="evenodd" stroke="none" stroke-width="1" stroke-linecap="butt" stroke-linejoin="miter" stroke-miterlimit="10" stroke-dasharray="" stroke-dashoffset="0" style="mix-blend-mode: normal"><path d="M255.77336,115.93081c4.36736,-0.13538 18.54538,-0.13836 20.8579,-0.00446c5.37336,0.31123 8.39969,2.30687 9.67616,6.38026c0.14104,0.44929 0.38681,1.15269 0.54629,1.56271c0.32016,0.8239 0.68971,2.26283 0.81646,3.18195c0.04523,0.3273 0.16008,0.78195 0.25529,1.01046c0.34902,0.83789 0.65043,2.2426 0.81825,3.81482c0.09462,0.88639 0.2791,1.92274 0.40972,2.303c0.38532,1.11996 0.58914,2.44939 0.71649,4.67562c0.09283,1.62103 0.19965,2.41696 0.47458,3.53483c0.40139,1.63322 0.54897,3.10964 0.66114,6.62008c0.06159,1.9275 0.13717,2.7029 0.36062,3.69253c0.50493,2.23813 0.61086,3.82583 0.77659,11.66079c0.06605,3.1275 0.17198,5.53523 0.27791,6.30795c0.59063,4.31857 0.54719,24.59685 -0.06159,28.86186c-0.06546,0.45822 -0.16454,3.43069 -0.22018,6.6055c-0.15889,9.06917 -0.25648,10.7378 -0.76439,13.03247c-0.22554,1.01998 -0.30647,1.82187 -0.36598,3.63005c-0.10593,3.21259 -0.26303,4.71043 -0.66472,6.32938c-0.23208,0.93608 -0.38562,1.96885 -0.46953,3.15963c-0.07825,1.10598 -0.23357,2.19142 -0.41388,2.89452c-0.96494,3.75769 -1.17501,4.46526 -1.50855,5.08266c-1.03635,1.91827 -3.05549,3.25871 -5.42692,3.60327c-0.97773,0.14223 -8.54489,0.10533 -15.6229,-0.07587c-1.63025,-0.04166 -4.22752,-0.01607 -5.89139,0.05832c-4.54113,0.20292 -52.37326,0.42698 -55.90423,0.26214c-6.42786,-0.30052 -7.8781,-1.22975 -8.55828,-5.48465c-0.06814,-0.42549 -0.19638,-1.01463 -0.28534,-1.3092c-0.38175,-1.26635 -0.44215,-2.012 -0.52963,-6.54599c-0.07617,-3.95883 -0.12943,-4.91723 -0.33712,-6.06992c-0.41388,-2.29824 -0.73672,-8.67849 -0.73791,-14.59309c-0.00059,-2.0001 -0.04314,-2.51068 -0.35259,-4.22514c-0.42103,-2.33275 -0.57277,-4.35665 -0.71203,-9.50805c-0.09432,-3.49645 -0.1333,-3.99395 -0.40645,-5.17728c-0.40674,-1.76236 -0.5207,-3.02246 -0.67364,-7.43862c-0.11247,-3.25068 -0.16752,-3.90736 -0.41388,-4.93925c-0.41329,-1.73022 -0.51922,-2.79127 -0.65966,-6.5924c-0.10503,-2.8481 -0.17287,-3.61934 -0.41448,-4.7143c-0.50732,-2.30032 -0.76767,-5.05678 -0.77362,-8.19558c-0.00149,-0.81855 -0.09016,-1.42673 -0.35795,-2.45653c-0.40496,-1.55646 -0.54242,-2.58953 -0.70429,-5.2963c-0.08926,-1.48981 -0.18031,-2.11138 -0.41894,-2.85643c-0.16752,-0.52368 -0.38681,-1.46095 -0.48708,-2.08281c-0.19668,-1.21785 -0.4963,-2.37054 -0.66323,-2.55294c-0.05713,-0.06219 -0.10384,-0.23 -0.10384,-0.37312c0,-0.14312 -0.08004,-0.41359 -0.17793,-0.60104c-0.14937,-0.28683 -0.17793,-1.15239 -0.17912,-5.45876c-0.00119,-5.3811 -0.00089,-5.38705 0.55373,-6.68286c0.08807,-0.2065 0.16038,-0.42638 0.16038,-0.48887c0,-0.71322 2.3033,-2.34614 4.28465,-3.03764c1.54783,-0.54034 3.85588,-1.1997 4.8845,-1.39578c0.64002,-0.12199 1.71773,-0.38443 2.39464,-0.58289c0.67691,-0.19876 1.87394,-0.46923 2.66035,-0.60104c0.78641,-0.13152 1.89982,-0.39841 2.47438,-0.59241c0.57426,-0.1943 1.67161,-0.43828 2.43808,-0.54272c0.76677,-0.10414 1.95636,-0.34664 2.64369,-0.53885c0.68733,-0.19192 1.83883,-0.43501 2.55889,-0.54005c0.72006,-0.10503 2.00545,-0.36925 2.85643,-0.58706c0.85098,-0.2178 2.05603,-0.45554 2.67791,-0.52844c0.62187,-0.0729 1.88048,-0.31629 2.79692,-0.54123c0.92418,-0.22703 2.43481,-0.48946 3.39201,-0.58914c1.01136,-0.10563 2.12001,-0.30171 2.67791,-0.47339c1.22767,-0.37818 2.02717,-0.51326 3.92759,-0.66382c0.8724,-0.06903 2.01438,-0.24726 2.61839,-0.40883c1.49159,-0.39901 2.24022,-0.51683 4.22514,-0.6662c1.01998,-0.07647 2.33424,-0.26868 3.21349,-0.46953c1.84805,-0.42222 2.01706,-0.44453 4.93925,-0.65192c1.64156,-0.11634 2.76836,-0.26214 3.63005,-0.46953c1.67339,-0.40288 3.19504,-0.55522 6.6055,-0.66085M267.91319,130.49118c-1.28123,-0.27969 -4.2299,-0.47012 -5.11777,-0.33057c-0.19638,0.03094 -1.37466,0.23893 -2.61839,0.46238c-1.24374,0.22345 -3.14505,0.51773 -4.22514,0.654c-1.08009,0.13628 -2.76717,0.37788 -3.74907,0.53647c-0.9819,0.15889 -2.6422,0.40139 -3.68956,0.53885c-5.63074,0.74029 -13.0405,2.04026 -22.31587,3.9151c-1.27647,0.25797 -3.01711,0.60848 -3.86808,0.77838c-7.89,1.57728 -14.17831,3.03883 -16.16413,3.7574c-2.52854,0.91495 -3.16588,2.92011 -2.22445,6.99736c0.20084,0.86972 0.40317,2.21165 0.47845,3.17332c0.15859,2.02271 0.39097,4.32392 0.70965,7.02206c0.13152,1.11282 0.32165,3.14803 0.42281,4.52268c0.10117,1.37466 0.23655,3.00818 0.30141,3.63005c0.46893,4.50751 0.71143,7.11876 0.82271,8.86684c0.07081,1.11282 0.31272,4.03173 0.53737,6.48648c0.22465,2.45475 0.46506,5.50756 0.53439,6.78402c0.06903,1.27647 0.20739,3.33846 0.30707,4.58219c0.5335,6.65905 0.65757,8.472 0.76588,11.18769c0.13122,3.28817 0.3035,6.44542 0.48024,8.80733c0.06367,0.85098 0.19549,2.85941 0.29308,4.46317c0.18239,2.99509 0.47845,7.53533 0.60164,9.22389c0.2547,3.4902 0.89353,4.07904 3.94604,3.63749c0.40615,-0.05891 4.26233,-0.13866 8.56929,-0.17734c4.30696,-0.03868 8.95551,-0.09611 10.33017,-0.12794c1.37466,-0.03184 4.48103,-0.08569 6.90304,-0.11961c2.42202,-0.03422 6.43887,-0.11932 8.92635,-0.18924c2.48748,-0.06992 8.72699,-0.19906 13.86559,-0.28683c9.88295,-0.16901 9.99156,-0.17674 10.89014,-0.76082c0.92536,-0.60134 1.5761,-2.46814 2.07954,-5.9628c0.07052,-0.49095 0.32611,-1.72278 0.56742,-2.73741c0.42103,-1.76861 0.43858,-1.92601 0.42103,-3.80858c-0.01398,-1.53474 0.04434,-2.38006 0.2672,-3.86808c0.96315,-6.43143 1.06462,-7.75105 0.85068,-11.06867c-0.17347,-2.68534 -0.14461,-3.40213 0.20947,-5.23679c0.61027,-3.16409 1.14079,-10.85355 0.91912,-13.33001c-0.55224,-6.17614 -1.1759,-11.31831 -1.52224,-12.5564c-0.55373,-1.97838 -1.85698,-2.47944 -4.56583,-1.75551c-0.62187,0.16603 -1.63947,0.36449 -2.26134,0.44096c-1.93315,0.23744 -8.8478,1.17917 -11.84229,1.61269c-1.57104,0.22732 -3.36523,0.47042 -3.9871,0.53975c-1.09853,0.12259 -3.64314,0.43947 -6.18893,0.77124c-0.68733,0.08926 -1.91917,0.22108 -2.73741,0.29219c-0.81825,0.07141 -2.58567,0.26868 -3.92759,0.43828c-2.72492,0.34485 -4.64676,0.34009 -7.49813,-0.01815c-3.15457,-0.39633 -3.78745,-0.88847 -3.97996,-3.09506c-0.60402,-6.92327 -0.49065,-7.15239 3.80143,-7.68261c1.04736,-0.12913 2.84155,-0.36747 3.9871,-0.52903c1.14555,-0.16157 2.83263,-0.3758 3.74907,-0.47607c0.91644,-0.10027 2.84453,-0.36628 4.28465,-0.59152c1.44012,-0.22494 3.47533,-0.49601 4.52268,-0.60223c1.04736,-0.10652 2.73444,-0.31986 3.74907,-0.47458c1.01463,-0.15472 2.89392,-0.39187 4.17604,-0.52665c1.28212,-0.13509 3.42445,-0.40198 4.76072,-0.59301c1.33628,-0.19073 2.8847,-0.38205 3.44111,-0.4246c7.1622,-0.54897 8.16106,-0.71173 8.79483,-1.43387c0.86645,-0.98666 1.01701,-2.10632 0.55135,-4.10196c-0.35943,-1.54098 -0.59271,-2.8722 -1.13662,-6.48648c-0.85336,-5.66972 -2.03223,-10.23793 -3.1748,-12.3014c-0.82301,-1.48624 -1.54128,-1.9269 -4.02311,-2.46843M254.99974,189.89929c1.85966,-0.39931 5.14158,-0.09016 6.54599,0.61621c1.42197,0.7156 1.84894,2.98348 1.38388,7.35144c-0.10444,0.9819 -0.32611,3.68658 -0.49244,6.01041c-0.16603,2.32383 -0.35319,4.70716 -0.41537,5.2963c-0.06248,0.58914 -0.16901,1.84775 -0.23685,2.79692c-0.37223,5.20882 -0.86347,5.99523 -4.08946,6.54391c-3.115,0.53022 -6.06367,0.07111 -6.83044,-1.06313c-0.70935,-1.05004 -1.15745,-8.63267 -0.63198,-10.69763c0.12765,-0.50196 0.43471,-1.93017 0.68257,-3.17391l0.44989,-2.26134l-0.02529,-3.09447l-0.02559,-3.09447l0.35616,-1.33776c0.7998,-3.0052 1.16072,-3.42712 3.32893,-3.89248" fill="#050505"/><path d="M262.79542,130.1606c2.40833,-0.37848 7.16935,0.53588 8.24973,1.58443c1.53533,1.49011 2.97753,6.28355 4.06595,13.51598c0.54391,3.61428 0.77719,4.94549 1.13662,6.48648c0.46566,1.99563 0.3151,3.1153 -0.55135,4.10196c-0.63377,0.72214 -1.63263,0.8849 -8.79483,1.43387c-0.55641,0.04255 -2.10483,0.23387 -3.44111,0.4246c-1.33628,0.19102 -3.4786,0.45792 -4.76072,0.59301c-1.28212,0.13479 -3.16142,0.37193 -4.17604,0.52665c-1.01463,0.15472 -2.70171,0.36806 -3.74907,0.47458c-1.04736,0.10622 -3.08257,0.37729 -4.52268,0.60223c-1.44012,0.22524 -3.36821,0.49125 -4.28465,0.59152c-0.91644,0.10027 -2.60352,0.3145 -3.74907,0.47607c-1.14555,0.16157 -2.93974,0.3999 -3.9871,0.52903c-4.29209,0.53022 -4.40545,0.75934 -3.80143,7.68261c0.19251,2.20659 0.82539,2.69873 3.97996,3.09506c2.85137,0.35825 4.77322,0.36301 7.49813,0.01815c1.34193,-0.1696 3.10934,-0.36687 3.92759,-0.43828c0.81825,-0.07111 2.05009,-0.20292 2.73741,-0.29219c2.5458,-0.33176 5.0904,-0.64865 6.18893,-0.77124c0.62187,-0.06933 2.41606,-0.31242 3.9871,-0.53975c2.99449,-0.43352 9.90914,-1.37525 11.84229,-1.61269c0.62187,-0.07647 1.63947,-0.27493 2.26134,-0.44096c2.70885,-0.72393 4.0121,-0.22286 4.56583,1.75551c0.34634,1.23809 0.97,6.38026 1.52224,12.5564c0.22167,2.47647 -0.30885,10.16592 -0.91912,13.33001c-0.35408,1.83466 -0.38294,2.55145 -0.20947,5.23679c0.21394,3.31763 0.11247,4.63724 -0.85068,11.06867c-0.22286,1.48802 -0.28118,2.33335 -0.2672,3.86808c0.01755,1.88257 0,2.03997 -0.42103,3.80858c-0.24131,1.01463 -0.4969,2.24646 -0.56742,2.73741c-0.50345,3.49467 -1.15418,5.36146 -2.07954,5.9628c-0.89859,0.58408 -1.00719,0.59182 -10.89014,0.76082c-5.1386,0.08777 -11.37812,0.21691 -13.86559,0.28683c-2.48748,0.06992 -6.50433,0.15502 -8.92635,0.18924c-2.42202,0.03392 -5.52838,0.08777 -6.90304,0.11961c-1.37466,0.03184 -6.0232,0.08926 -10.33017,0.12794c-4.30696,0.03868 -8.16315,0.11842 -8.56929,0.17734c-3.05251,0.44156 -3.69134,-0.14729 -3.94604,-3.63749c-0.12318,-1.68857 -0.41924,-6.22881 -0.60164,-9.22389c-0.0976,-1.60377 -0.22941,-3.61219 -0.29308,-4.46317c-0.17674,-2.36191 -0.34902,-5.51916 -0.48024,-8.80733c-0.10831,-2.71569 -0.23238,-4.52863 -0.76588,-11.18769c-0.09968,-1.24374 -0.23804,-3.30573 -0.30707,-4.58219c-0.06933,-1.27647 -0.30974,-4.32928 -0.53439,-6.78402c-0.22465,-2.45475 -0.46655,-5.37366 -0.53737,-6.48648c-0.11128,-1.74808 -0.35378,-4.35933 -0.82271,-8.86684c-0.06487,-0.62187 -0.20025,-2.25539 -0.30141,-3.63005c-0.10117,-1.37466 -0.2913,-3.40986 -0.42281,-4.52268c-0.31867,-2.69814 -0.55105,-4.99935 -0.70965,-7.02206c-0.07528,-0.96167 -0.27761,-2.30359 -0.47845,-3.17332c-0.94143,-4.07726 -0.30409,-6.08241 2.22445,-6.99736c1.98581,-0.71857 8.27413,-2.18011 16.16413,-3.7574c0.85098,-0.1699 2.59162,-0.52041 3.86808,-0.77838c9.27537,-1.87483 16.68513,-3.1748 22.31587,-3.9151c1.04736,-0.13747 2.70766,-0.37996 3.68956,-0.53885c0.9819,-0.15859 2.66898,-0.4002 3.74907,-0.53647c1.08009,-0.13628 2.9814,-0.43055 4.22514,-0.654c1.24374,-0.22345 2.42202,-0.43144 2.61839,-0.46238M259.66703,189.95017c-1.4422,-0.27791 -3.50478,-0.30052 -4.66729,-0.05088c-2.16821,0.46536 -2.52913,0.88728 -3.32893,3.89248l-0.35616,1.33776l0.02559,3.09447l0.02529,3.09447l-0.44989,2.26134c-0.24785,1.24374 -0.55492,2.67195 -0.68257,3.17391c-0.52546,2.06496 -0.07736,9.6476 0.63198,10.69763c0.76677,1.13424 3.71544,1.59335 6.83044,1.06313c3.22598,-0.54867 3.71723,-1.33508 4.08946,-6.54391c0.06784,-0.94917 0.17436,-2.20778 0.23685,-2.79692c0.06219,-0.58914 0.24934,-2.97247 0.41537,-5.2963c0.16633,-2.32383 0.388,-5.02851 0.49244,-6.01041c0.60997,-5.72923 -0.03511,-7.29461 -3.26258,-7.91678" fill="#fbfbfb"/></g></g></svg>