<svg version="1.1" xmlns="http://www.w3.org/2000/svg" xmlns:xlink="http://www.w3.org/1999/xlink" width="104.73758" height="127.25235" viewBox="0,0,104.73758,127.25235"><g transform="translate(-187.63123,-116.37384)"><g data-paper-data="{&quot;isPaintingLayer&quot;:true}" fill-rule="evenodd" stroke="none" stroke-width="1" stroke-linecap="butt" stroke-linejoin="miter" stroke-miterlimit="10" stroke-dasharray="" stroke-dashoffset="0" style="mix-blend-mode: normal"><path d="M262.52006,130.4195c2.81123,-0.42016 7.53443,0.52101 8.57757,1.70887c1.33703,1.52309 2.91488,6.85055 3.77699,12.75265c0.09862,0.67606 0.2274,1.55605 0.28607,1.95554c0.72746,4.95842 1.56527,11.86484 1.82983,15.08562c0.09862,1.19847 0.24975,2.93331 0.3358,3.85521c0.08604,0.9219 0.21092,2.53103 0.27741,3.57585c0.19611,3.07775 0.43637,5.90211 0.84563,9.94533c0.55957,5.53056 0.26707,12.29897 -0.74143,17.15291c-0.22405,1.07862 -0.23578,1.32698 -0.14499,3.073c0.24612,4.74219 0.11398,6.80864 -0.80149,12.51548c-0.22209,1.38369 -0.26511,2.02706 -0.24724,3.6876c0.02011,1.85777 -0.00195,2.10947 -0.2883,3.29649c-0.39614,1.64098 -0.68919,3.11462 -0.90067,4.52569c-0.37965,2.53243 -1.13002,4.32846 -2.01561,4.82293c-0.75009,0.41877 -1.56863,0.4724 -9.11339,0.59588c-4.02563,0.06593 -9.30559,0.17181 -11.73326,0.2355c-5.82556,0.15253 -13.73406,0.28076 -26.48364,0.4291c-8.12081,0.09442 -10.78678,0.16035 -11.96792,0.29641c-2.71178,0.31233 -3.27498,-0.11454 -3.5535,-2.69223c-0.2031,-1.88179 -0.49671,-7.26177 -0.41849,-7.67104c0.25059,-1.31021 1.81475,-1.80245 3.87142,-1.21886c0.46095,0.13074 1.56723,0.38832 2.4584,0.57242c1.60941,0.33244 5.15816,1.30519 6.65136,1.82312c3.42862,1.18981 9.93891,0.96883 11.24912,-0.38161c0.79954,-0.8244 1.58008,-4.35695 2.04801,-9.27123c0.09638,-1.01409 0.27852,-2.79922 0.40452,-3.96696c0.48609,-4.50278 -0.01173,-9.77408 -1.018,-10.78035c-1.21272,-1.21272 -6.45581,-1.31357 -11.35947,-0.21874c-1.82676,0.40759 -2.15669,0.40731 -4.04742,-0.00587c-0.83921,-0.18354 -2.2296,-0.40955 -3.09004,-0.50257c-6.8648,-0.74143 -7.34809,-0.82412 -7.92023,-1.35799c-1.00878,-0.94118 -1.50409,-3.92645 -1.13924,-6.86731c0.34473,-2.77967 0.60706,-2.94896 5.09251,-3.29006c1.25993,-0.09554 2.86906,-0.2707 3.57585,-0.38887c0.70679,-0.11789 1.8885,-0.3168 2.62602,-0.44139c2.52628,-0.42743 7.71015,-1.22054 8.77201,-1.34178c0.58387,-0.06677 2.16786,-0.26931 3.51998,-0.45033c1.35212,-0.18075 3.15876,-0.40619 4.01473,-0.50062c3.40348,-0.3763 3.70324,-0.64477 4.10552,-3.67614c0.30702,-2.31397 0.29249,-3.80158 -0.06481,-6.66281c-0.2992,-2.39219 -0.51682,-4.75756 -0.95738,-10.39232c-0.38384,-4.91484 -0.4657,-5.02239 -4.10413,-5.41574c-2.80984,-0.30367 -6.81814,-0.03716 -11.58212,0.76993c-0.90569,0.15337 -2.51175,0.38468 -3.56915,0.51347c-1.05739,0.12907 -2.75229,0.35758 -3.76638,0.50788c-3.45628,0.51179 -8.30938,0.93363 -9.07596,0.78864c-1.23562,-0.23355 -1.55885,-1.12388 -1.9927,-5.48921c-0.23215,-2.3352 -0.32211,-2.88806 -0.7825,-4.80505c-0.58052,-2.41789 0.02319,-4.8964 1.3876,-5.69594c1.33536,-0.7825 8.69295,-2.55422 18.3416,-4.41646c2.06952,-0.39949 5.81243,-1.14763 8.10154,-1.61975c1.65383,-0.3411 2.97019,-0.5889 6.81646,-1.28395c0.64533,-0.1165 1.57561,-0.26959 2.06729,-0.34026c0.49168,-0.07068 1.9751,-0.30227 3.29649,-0.51459c1.32139,-0.21232 3.18195,-0.48414 4.13458,-0.60398c0.95263,-0.11985 2.66233,-0.3668 3.79934,-0.54923c1.13701,-0.18215 2.897,-0.43497 3.91109,-0.56152c1.01409,-0.12683 2.77408,-0.40424 3.91109,-0.61627c1.13701,-0.21232 2.39414,-0.43469 2.79363,-0.49447" fill="#f9f9f9"/><path d="M254.97725,116.4438c3.71274,-0.13661 22.40298,-0.05699 23.46652,0.10001c3.66692,0.54196 6.61895,2.95929 7.49197,6.13538c0.0961,0.3492 0.29473,0.93671 0.44139,1.30547c0.40703,1.02247 0.69031,2.03768 0.8353,2.99589c0.07236,0.47743 0.25506,1.22138 0.40619,1.65327c0.40703,1.16494 0.5808,2.01588 0.71713,3.50824c0.07012,0.76937 0.23578,1.70412 0.38887,2.193c0.421,1.34514 0.60538,2.56567 0.72523,4.80058c0.09107,1.69769 0.17237,2.30978 0.44391,3.35236c0.43804,1.68037 0.5509,2.74949 0.63108,5.96888c0.04107,1.66109 0.12851,2.97969 0.22964,3.46411c0.08968,0.43022 0.25841,1.23087 0.37491,1.77954c0.31065,1.46386 0.44363,3.8622 0.56012,10.08976c0.07319,3.92505 0.15309,5.87557 0.2707,6.62454c0.578,3.67502 0.52995,25.98386 -0.06286,29.27728c-0.0609,0.33803 -0.15589,3.50601 -0.21092,7.03995c-0.13326,8.5474 -0.26372,10.46355 -0.85876,12.62722c-0.11342,0.41262 -0.2003,1.53259 -0.26456,3.40823c-0.11761,3.42862 -0.23997,4.55669 -0.67103,6.17924c-0.25338,0.95375 -0.36261,1.68931 -0.44642,3.00902c-0.11594,1.8234 -0.26316,2.65116 -0.7202,4.05356c-0.1503,0.46095 -0.35284,1.24037 -0.44977,1.73205c-0.4643,2.3514 -1.70272,3.93483 -3.88259,4.96373c-1.52756,0.72104 -1.74071,0.73947 -8.07248,0.69673c-9.96601,-0.06733 -15.94382,-0.05112 -26.09253,0.07012c-23.96323,0.28663 -46.85286,0.16063 -48.93942,-0.26959c-2.68999,-0.55426 -4.3631,-2.57042 -4.3631,-5.25734c0,-0.2017 -0.07459,-0.55621 -0.16566,-0.78808c-0.42966,-1.09175 -0.51263,-2.01337 -0.57577,-6.39965c-0.0542,-3.76247 -0.09442,-4.50529 -0.32099,-5.9225c-0.48358,-3.02522 -0.56599,-4.38712 -0.7283,-12.04866c-0.08297,-3.91611 -0.16427,-5.76801 -0.28048,-6.39742c-0.08996,-0.48721 -0.23662,-1.28004 -0.32574,-1.76195c-0.22237,-1.2035 -0.38804,-3.95467 -0.50816,-8.45465c-0.09359,-3.49651 -0.12404,-3.88706 -0.38189,-4.90087c-0.42938,-1.68707 -0.73333,-5.599 -0.73528,-9.4584c-0.00056,-1.29513 -0.13996,-2.33212 -0.45005,-3.35236c-0.25701,-0.84535 -0.44251,-2.88918 -0.5632,-6.20186c-0.11566,-3.17804 -0.15281,-3.57557 -0.44754,-4.81594c-0.41821,-1.75831 -0.51822,-2.69753 -0.67047,-6.28875c-0.11286,-2.66401 -0.15952,-3.10373 -0.44391,-4.20442c-0.39809,-1.53901 -0.52325,-2.4936 -0.65874,-5.02854c-0.09303,-1.74183 -0.15225,-2.15361 -0.44279,-3.073c-0.18438,-0.58387 -0.41569,-1.6122 -0.51403,-2.28491c-0.09806,-0.67299 -0.30171,-1.53175 -0.45257,-1.90861c-0.15086,-0.37658 -0.27573,-0.78166 -0.27769,-0.89955c-0.00195,-0.11817 -0.07738,-0.31233 -0.16762,-0.43162c-0.24724,-0.32713 -0.24333,-10.57949 0.00419,-11.05441c0.09191,-0.176 0.16706,-0.41346 0.16706,-0.52772c0,-1.01632 1.23283,-2.31844 3.05596,-3.22749c1.5446,-0.77021 4.7637,-1.79826 6.80725,-2.17372c0.53861,-0.09889 1.36832,-0.30562 1.8438,-0.45927c0.47548,-0.15337 1.5689,-0.40228 2.43018,-0.55286c0.86128,-0.15058 2.04131,-0.4305 2.62238,-0.62214c0.59476,-0.19583 1.62031,-0.4196 2.34525,-0.51151c0.70874,-0.08968 1.91727,-0.33691 2.68552,-0.54923c0.76825,-0.21232 1.9751,-0.46402 2.68189,-0.55929c0.70679,-0.09526 1.91364,-0.34585 2.68189,-0.55677c0.76825,-0.21092 2.05053,-0.46123 2.84951,-0.55621c0.79898,-0.09526 1.95554,-0.31736 2.57014,-0.49364c1.53566,-0.44056 1.49208,-0.43245 3.43421,-0.61851c1.12555,-0.10783 2.03796,-0.2626 2.61177,-0.44307c1.33256,-0.41877 1.80273,-0.50285 3.82672,-0.68416c1.02331,-0.09163 2.03656,-0.21287 2.25167,-0.26931c0.21511,-0.05643 0.76825,-0.20533 1.2292,-0.33077c0.79227,-0.21595 1.45353,-0.29976 4.44495,-0.56347c0.6931,-0.06118 1.72395,-0.23634 2.29078,-0.38915c1.25322,-0.33803 2.31453,-0.47129 4.93831,-0.61935c1.56611,-0.08856 2.30363,-0.18633 3.35236,-0.44391c1.6692,-0.41066 3.035,-0.56292 6.0376,-0.67354M267.05887,130.58349c-1.09985,-0.21036 -3.61915,-0.30143 -4.53882,-0.16399c-0.39949,0.05978 -1.65663,0.28216 -2.79363,0.49447c-1.13701,0.21204 -2.897,0.48944 -3.91109,0.61627c-1.01409,0.12655 -2.77408,0.37938 -3.91109,0.56152c-1.13701,0.18242 -2.84671,0.42938 -3.79934,0.54923c-0.95263,0.11985 -2.81319,0.39167 -4.13458,0.60398c-1.32139,0.21232 -2.80481,0.44391 -3.29649,0.51459c-0.49168,0.07068 -1.42196,0.22377 -2.06729,0.34026c-3.84627,0.69505 -5.16263,0.94285 -6.81646,1.28395c-2.2891,0.47212 -6.03201,1.22026 -8.10154,1.61975c-9.64865,1.86224 -17.00624,3.63396 -18.3416,4.41646c-1.36441,0.79954 -1.96811,3.27805 -1.3876,5.69594c0.46039,1.91699 0.55034,2.46985 0.7825,4.80505c0.43385,4.36533 0.75708,5.25566 1.9927,5.48921c0.76657,0.14499 5.61967,-0.27685 9.07596,-0.78864c1.01409,-0.1503 2.70898,-0.37882 3.76638,-0.50788c1.05739,-0.12879 2.66345,-0.3601 3.56915,-0.51347c4.76398,-0.80708 8.77229,-1.07359 11.58212,-0.76993c3.63843,0.39334 3.72028,0.5009 4.10413,5.41574c0.44056,5.63476 0.65818,8.00013 0.95738,10.39232c0.35731,2.86124 0.37183,4.34885 0.06481,6.66281c-0.40228,3.03137 -0.70204,3.29984 -4.10552,3.67614c-0.85597,0.09442 -2.66261,0.31987 -4.01473,0.50062c-1.35212,0.18103 -2.93611,0.38357 -3.51998,0.45033c-1.06186,0.12124 -6.24573,0.91436 -8.77201,1.34178c-0.73752,0.1246 -1.91923,0.3235 -2.62602,0.44139c-0.70679,0.11817 -2.31592,0.29333 -3.57585,0.38887c-4.48546,0.3411 -4.74778,0.5104 -5.09251,3.29006c-0.36485,2.94086 0.13046,5.92613 1.13924,6.86731c0.57214,0.53386 1.05544,0.61655 7.92023,1.35799c0.86044,0.09303 2.25083,0.31903 3.09004,0.50257c1.89073,0.41318 2.22066,0.41346 4.04742,0.00587c4.90366,-1.09483 10.14676,-0.99397 11.35947,0.21874c1.00627,1.00627 1.50409,6.27757 1.018,10.78035c-0.12599,1.16774 -0.30814,2.95287 -0.40452,3.96696c-0.2098,2.2011 -0.98951,6.99973 -1.30183,8.01102c-0.27378,0.88698 -1.0261,1.73093 -1.71725,1.92705c-2.52824,0.71685 -7.81239,0.57046 -10.27806,-0.28523c-1.4932,-0.51794 -5.04195,-1.49068 -6.65136,-1.82312c-0.89117,-0.1841 -1.99745,-0.44167 -2.4584,-0.57242c-2.05667,-0.58359 -3.62083,-0.09135 -3.87142,1.21886c-0.07822,0.40927 0.21539,5.78925 0.41849,7.67104c0.27852,2.57768 0.84172,3.00455 3.5535,2.69223c1.18115,-0.13605 3.84711,-0.20198 11.96792,-0.29641c12.74958,-0.14834 20.65808,-0.27657 26.48364,-0.4291c2.42767,-0.0637 7.70763,-0.16957 11.73326,-0.2355c7.54477,-0.12348 8.3633,-0.17712 9.11339,-0.59588c0.88558,-0.49447 1.63595,-2.2905 2.01561,-4.82293c0.21148,-1.41107 0.50453,-2.88471 0.90067,-4.52569c0.28635,-1.18702 0.30842,-1.43872 0.2883,-3.29649c-0.01788,-1.66054 0.02514,-2.30391 0.24724,-3.6876c0.91547,-5.70683 1.04761,-7.77328 0.80149,-12.51548c-0.09079,-1.74602 -0.07906,-1.99437 0.14499,-3.073c1.0085,-4.85394 1.30099,-11.62235 0.74143,-17.15291c-0.40927,-4.04322 -0.64952,-6.86759 -0.84563,-9.94533c-0.06649,-1.04482 -0.19136,-2.65395 -0.27741,-3.57585c-0.08604,-0.9219 -0.23718,-2.65674 -0.3358,-3.85521c-0.26456,-3.22078 -1.10237,-10.1272 -1.82983,-15.08562c-0.05867,-0.39949 -0.18745,-1.27949 -0.28607,-1.95554c-0.66293,-4.53937 -2.05555,-9.87438 -3.04255,-11.65587c-0.90709,-1.63735 -1.63763,-2.04159 -4.7732,-2.64166" fill="#040404"/></g></g></svg>