<svg version="1.1" xmlns="http://www.w3.org/2000/svg" xmlns:xlink="http://www.w3.org/1999/xlink" width="104.30941" height="131.296" viewBox="0,0,104.30941,131.296"><g transform="translate(-187.8453,-114.35199)"><g data-paper-data="{&quot;isPaintingLayer&quot;:true}" fill-rule="evenodd" stroke="none" stroke-width="1" stroke-linecap="butt" stroke-linejoin="miter" stroke-miterlimit="10" stroke-dasharray="" stroke-dashoffset="0" style="mix-blend-mode: normal"><path d="M233.17035,114.50924c0.43574,-0.11995 4.78039,-0.14473 26.41236,-0.15046l25.89083,-0.00678l0.42088,0.55726c0.79221,1.04933 1.46708,2.29163 1.73541,3.19466c0.14551,0.48946 0.33665,1.05402 0.42479,1.25481c0.4128,0.94137 0.69495,1.89891 0.91686,3.112c0.13299,0.7265 0.36325,1.65431 0.51163,2.06137c0.37707,1.03368 0.55152,1.94976 0.69051,3.62206c0.0884,1.06367 0.18853,1.62406 0.38176,2.13725c0.4613,1.22561 0.65218,2.43374 0.77005,4.86983c0.11578,2.38941 0.12204,2.43427 0.55961,3.96367l0.26833,0.93876l0.0013,44.6468c0.00104,37.34374 -0.0219,44.73155 -0.14081,45.16494c-0.07797,0.28502 -0.2386,0.87018 -0.35673,1.30045c-0.14447,0.52597 -0.25216,1.39771 -0.32857,2.65983c-0.12074,1.99044 -0.29884,2.94537 -0.83211,4.46408c-0.17732,0.50485 -0.32231,0.99457 -0.32231,1.0887c0,1.56278 -1.29236,3.69794 -2.84889,4.70607c-2.22435,1.441 -2.14403,1.42927 -9.45934,1.38702c-9.899,-0.05685 -16.17802,-0.04485 -43.0788,0.08292c-36.50172,0.17367 -36.39246,0.17654 -38.35708,-1.00317c-1.34843,-0.80942 -2.42696,-2.97171 -2.42696,-4.86566c0,-0.19714 -0.06597,-0.51658 -0.14629,-0.71007c-0.38985,-0.93616 -0.4819,-2.04468 -0.57473,-6.92312c-0.08657,-4.53188 -0.10613,-4.86749 -0.35412,-6.04981c-0.44383,-2.11639 -0.63054,-5.50637 -0.7604,-13.82068c-0.06623,-4.2406 -0.08736,-4.61585 -0.32231,-5.73689c-0.55987,-2.66843 -0.67304,-4.14751 -0.86158,-11.26516c-0.0871,-3.28776 -0.09909,-3.42623 -0.40315,-4.58951c-0.44722,-1.7109 -0.73458,-5.63597 -0.75205,-10.27424c-0.00495,-1.33278 -0.05554,-1.66135 -0.50432,-3.28567c-0.36638,-1.3247 -0.48842,-2.78813 -0.6394,-7.66657c-0.08605,-2.7717 -0.09283,-2.83454 -0.43392,-3.96367l-0.34656,-1.14738l-0.02947,-19.93125l-0.02947,-19.93125l0.65374,-0.31553c0.3596,-0.17367 1.07619,-0.42323 1.59251,-0.55491c0.51632,-0.13169 1.34843,-0.39689 1.84936,-0.58933c0.53457,-0.20522 1.50332,-0.45321 2.34691,-0.60003c0.78986,-0.13769 1.93203,-0.4141 2.53805,-0.61437c0.60602,-0.20027 1.47438,-0.41879 1.92968,-0.48555c0.4553,-0.0665 1.13304,-0.16767 1.50593,-0.22426c0.3729,-0.05685 1.21778,-0.28737 1.87753,-0.51241c0.91816,-0.31318 1.52966,-0.44565 2.60768,-0.56534c0.9565,-0.10639 1.70672,-0.25764 2.33909,-0.47199c1.13643,-0.38541 2.06059,-0.57682 3.51854,-0.72885c0.68608,-0.07171 1.46317,-0.23469 2.02955,-0.42635c1.09262,-0.36925 2.18523,-0.58073 3.74306,-0.72441c0.75962,-0.07015 1.54061,-0.22687 2.31144,-0.46391c1.50411,-0.4626 1.99279,-0.54839 3.91803,-0.68843c1.35808,-0.09857 1.74558,-0.1682 2.62124,-0.47069c1.31896,-0.45582 1.78521,-0.53588 4.18767,-0.71894c1.44491,-0.11004 2.15133,-0.21096 2.60768,-0.37185c0.34421,-0.12126 0.86053,-0.28528 1.14738,-0.36403M266.61588,126.24769c-1.97584,-0.19949 -3.11539,-0.11291 -5.90847,0.4493c-1.66657,0.33535 -2.91303,0.53171 -4.74597,0.74788c-0.77448,0.09127 -2.39385,0.32387 -3.59859,0.51658c-1.20475,0.19297 -3.01187,0.45217 -4.01582,0.57604c-1.00396,0.12413 -2.92842,0.40628 -4.27659,0.62715c-1.34817,0.22113 -2.82672,0.4553 -3.28567,0.52075c-2.57325,0.36638 -11.60546,2.05328 -15.07237,2.81525c-0.77448,0.17002 -1.94793,0.40914 -2.60768,0.53118c-0.65974,0.12204 -1.88013,0.36221 -2.71198,0.53353c-0.83185,0.17159 -2.87366,0.58542 -4.53736,0.91999c-3.57564,0.71868 -3.54618,0.7119 -7.82303,1.7813c-3.83928,0.96015 -4.4367,1.1333 -5.12878,1.4869c-1.7993,0.91947 -2.36803,3.38476 -1.54974,6.71711c0.35777,1.45639 0.50824,2.46478 0.62715,4.19836c0.09805,1.42901 0.24486,2.87835 0.62819,6.20627c0.19818,1.72107 0.43209,4.13838 0.51945,5.37181c0.16376,2.30936 0.2785,3.56547 0.7205,7.87518c0.2931,2.85984 0.34865,3.51436 0.43444,5.11104c0.14473,2.69112 0.80421,9.58399 1.13773,11.891c0.5776,3.99313 1.34582,4.78378 5.16659,5.31705c2.25616,0.31475 2.76857,0.80316 3.13625,2.9897c0.10561,0.62845 0.26181,1.41049 0.34734,1.73776c0.08527,0.327 0.29832,1.1346 0.47329,1.79434c0.82794,3.12061 0.16168,4.92955 -3.07862,8.35812c-0.65453,0.69286 -1.45508,1.69108 -1.94976,2.43218c-0.46182,0.69156 -1.0402,1.51532 -1.28558,1.83085c-1.21987,1.56826 -1.78521,4.95276 -1.29158,7.73228c0.62793,3.53549 0.62558,3.51619 0.88296,7.60085c0.29493,4.68052 0.3802,5.30845 0.81047,5.95593c0.50041,0.75284 1.34973,0.95623 2.81838,0.67539c0.98231,-0.18801 3.56547,-0.25321 12.69677,-0.32074c3.98714,-0.02947 8.32892,-0.07875 9.6484,-0.10952c1.31948,-0.03077 5.07454,-0.1004 8.34456,-0.15437c3.27003,-0.05424 7.2363,-0.14368 8.81394,-0.19897c1.57764,-0.05528 6.74084,-0.15125 11.47377,-0.21279c11.30114,-0.14759 11.86466,-0.19166 12.66444,-0.99118c0.5922,-0.59246 1.51949,-3.34434 1.67804,-4.98014c0.11735,-1.21153 0.28006,-2.10648 0.68165,-3.74801c0.55543,-2.27102 0.63549,-2.97327 0.56143,-4.93033c-0.05528,-1.45978 -0.03494,-1.81833 0.15776,-2.77196c1.05141,-5.20831 1.13382,-6.0459 0.78934,-8.0319c-0.52962,-3.05176 -1.38546,-3.55765 -7.76644,-4.59186c-2.05563,-0.333 -2.6108,-0.67956 -3.75375,-2.34143c-1.68873,-2.45565 -1.60163,-4.50893 0.29728,-7.02325c1.53775,-2.03607 2.2027,-2.45773 4.54726,-2.88331c4.18063,-0.75883 6.30692,-1.42979 6.8694,-2.16724c0.83993,-1.10122 1.45665,-6.37212 1.05272,-8.99909c-0.56587,-3.6823 -0.78413,-5.36607 -0.88218,-6.81099c-0.2798,-4.11543 -0.43418,-6.12673 -0.57395,-7.47907c-0.08318,-0.80316 -0.22478,-2.39906 -0.31501,-3.54644c-0.39324,-5.0083 -2.13855,-18.16455 -2.80899,-21.17433c-0.08944,-0.40158 -0.33039,-1.54583 -0.53562,-2.54274c-0.61202,-2.97249 -1.7727,-6.10144 -2.72919,-7.35704c-0.678,-0.89052 -2.93676,-1.65066 -5.7468,-1.93437M236.1431,155.4427c2.17663,-0.46078 4.81664,-0.05737 5.71785,0.87383c0.57838,0.59742 0.7411,1.27333 0.95989,3.9827c0.05998,0.7458 0.17837,2.08353 0.26285,2.97275c0.34447,3.62936 0.32752,4.72015 -0.16689,10.69147c-0.34734,4.1981 -0.51345,4.81325 -1.4556,5.39085c-1.38807,0.85088 -4.68912,0.96588 -6.08188,0.21174c-1.17032,-0.6334 -1.2011,-0.78726 -1.3792,-6.90643c-0.0811,-2.78239 -0.19558,-5.92725 -0.25425,-6.98857c-0.53483,-9.65961 -0.54787,-9.60459 2.39724,-10.22835M238.62118,204.26335c2.18132,-0.55335 4.15794,-0.03364 4.82994,1.2702c0.43079,0.83524 1.07071,6.64801 1.06602,9.68334c-0.00495,3.17563 -0.62715,8.7232 -1.07723,9.60563c-0.67304,1.31922 -2.88852,1.82303 -5.02995,1.14373c-1.6444,-0.52154 -1.89839,-1.08584 -1.9993,-4.43879c-0.03442,-1.14738 -0.08553,-2.71981 -0.11396,-3.49429c-0.34552,-9.4922 -0.35543,-11.38276 -0.06206,-12.01669c0.47329,-1.02325 0.98179,-1.39667 2.38654,-1.75314" fill="#040404"/><path d="M262.95001,126.2928c3.39337,-0.5025 8.34873,0.49207 9.41267,1.88926c0.9565,1.2556 2.11717,4.38455 2.72919,7.35704c0.20522,0.99691 0.44617,2.14116 0.53562,2.54274c0.67043,3.00978 2.41575,16.16602 2.80899,21.17433c0.09023,1.14738 0.23182,2.74327 0.31501,3.54644c0.13977,1.35234 0.29415,3.36364 0.57395,7.47907c0.09805,1.44491 0.31631,3.12869 0.88218,6.81099c0.40393,2.62697 -0.21279,7.89787 -1.05272,8.99909c-0.56248,0.73745 -2.68877,1.40841 -6.8694,2.16724c-2.34456,0.42557 -3.00952,0.84723 -4.54726,2.88331c-1.89891,2.51432 -1.98601,4.5676 -0.29728,7.02325c1.14294,1.66187 1.69812,2.00843 3.75375,2.34143c6.38098,1.0342 7.23682,1.54009 7.76644,4.59186c0.34447,1.98601 0.26207,2.82359 -0.78934,8.0319c-0.19271,0.95363 -0.21305,1.31218 -0.15776,2.77196c0.07406,1.95706 -0.006,2.65931 -0.56143,4.93033c-0.40158,1.64153 -0.5643,2.53649 -0.68165,3.74801c-0.15855,1.63579 -1.08584,4.38768 -1.67804,4.98014c-0.79977,0.79951 -1.36329,0.84358 -12.66444,0.99118c-4.73293,0.06154 -9.89613,0.1575 -11.47377,0.21279c-1.57764,0.05528 -5.54392,0.14473 -8.81394,0.19897c-3.27003,0.05398 -7.02508,0.1236 -8.34456,0.15437c-1.31948,0.03077 -5.66126,0.08006 -9.6484,0.10952c-9.1313,0.06754 -11.71446,0.13273 -12.69677,0.32074c-1.46864,0.28085 -2.31796,0.07745 -2.81838,-0.67539c-0.43027,-0.64749 -0.51554,-1.27541 -0.81047,-5.95593c-0.25738,-4.08466 -0.25503,-4.06537 -0.88296,-7.60085c-0.49363,-2.77952 0.07171,-6.16402 1.29158,-7.73228c0.24538,-0.31553 0.82376,-1.13929 1.28558,-1.83085c0.49468,-0.7411 1.29523,-1.73932 1.94976,-2.43218c3.2403,-3.42857 3.90656,-5.23752 3.07862,-8.35812c-0.17498,-0.65974 -0.38802,-1.46734 -0.47329,-1.79434c-0.08553,-0.32726 -0.24173,-1.10931 -0.34734,-1.73776c-0.36768,-2.18654 -0.88009,-2.67495 -3.13625,-2.9897c-3.82077,-0.53327 -4.58899,-1.32392 -5.16659,-5.31705c-0.33352,-2.30701 -0.993,-9.19988 -1.13773,-11.891c-0.08579,-1.59668 -0.14134,-2.25121 -0.43444,-5.11104c-0.442,-4.30971 -0.55674,-5.56582 -0.7205,-7.87518c-0.08736,-1.23343 -0.32127,-3.65075 -0.51945,-5.37181c-0.38333,-3.32792 -0.53014,-4.77726 -0.62819,-6.20627c-0.11891,-1.73358 -0.26937,-2.74197 -0.62715,-4.19836c-0.81829,-3.33235 -0.24955,-5.79765 1.54974,-6.71711c0.69208,-0.3536 1.2895,-0.52675 5.12878,-1.4869c4.27685,-1.06941 4.24738,-1.06263 7.82303,-1.7813c1.6637,-0.33456 3.70551,-0.7484 4.53736,-0.91999c0.83185,-0.17132 2.05224,-0.41149 2.71198,-0.53353c0.65974,-0.12204 1.8332,-0.36116 2.60768,-0.53118c3.4669,-0.76196 12.49911,-2.44887 15.07237,-2.81525c0.45895,-0.06545 1.9375,-0.29962 3.28567,-0.52075c1.34817,-0.22087 3.27263,-0.50302 4.27659,-0.62715c1.00396,-0.12386 2.81107,-0.38307 4.01582,-0.57604c1.20475,-0.19271 2.82411,-0.42531 3.59859,-0.51658c1.83294,-0.21618 3.0794,-0.41253 4.74597,-0.74788c0.7458,-0.1502 1.75497,-0.33196 2.2426,-0.40419M239.69293,155.38794c-2.25981,-0.40341 -4.86853,0.09544 -5.7807,1.10487c-0.57082,0.63184 -0.58777,1.56695 -0.16637,9.17824c0.05867,1.06132 0.17315,4.20618 0.25425,6.98857c0.1781,6.11917 0.20887,6.27302 1.3792,6.90643c1.39276,0.75414 4.69382,0.63914 6.08188,-0.21174c0.94215,-0.5776 1.10826,-1.19275 1.4556,-5.39085c0.49442,-5.97132 0.51137,-7.06211 0.16689,-10.69147c-0.08449,-0.88922 -0.20288,-2.22695 -0.26285,-2.97275c-0.31344,-3.88283 -0.69156,-4.4766 -3.12791,-4.9113M242.20308,204.38851c-1.49681,-0.6853 -4.59655,-0.22348 -5.47038,0.8149c-0.84619,1.00552 -0.85584,1.29601 -0.436,12.82976c0.02842,0.77448 0.07953,2.34691 0.11396,3.49429c0.10092,3.35295 0.3549,3.91725 1.9993,4.43879c2.14142,0.6793 4.3569,0.1755 5.02995,-1.14373c0.91399,-1.79173 1.29497,-9.32635 0.74423,-14.71668c-0.48737,-4.771 -0.59559,-5.08314 -1.98105,-5.71733" fill="#fbfbfb"/></g></g></svg>