<svg version="1.1" xmlns="http://www.w3.org/2000/svg" xmlns:xlink="http://www.w3.org/1999/xlink" width="105.37431" height="127.99454" viewBox="0,0,105.37431,127.99454"><g transform="translate(-187.31284,-116.00273)"><g data-paper-data="{&quot;isPaintingLayer&quot;:true}" fill-rule="evenodd" stroke="none" stroke-width="1" stroke-linecap="butt" stroke-linejoin="miter" stroke-miterlimit="10" stroke-dasharray="" stroke-dashoffset="0" style="mix-blend-mode: normal"><path d="M263.31874,129.09966c3.06621,-0.51211 7.4456,0.30403 8.62266,1.6066c0.82561,0.91403 2.05651,4.10967 2.58312,6.70617c0.15564,0.76704 0.40835,1.94215 0.56147,2.61129c0.15313,0.66914 0.35312,1.74858 0.44461,2.39875c0.09149,0.65017 0.34029,2.28662 0.55311,3.63661c0.21282,1.34999 0.41811,2.75577 0.4566,3.12395c0.08117,0.78099 0.39803,3.30832 0.71349,5.69005c0.31742,2.39624 0.43931,3.56855 0.56956,5.46691c0.06304,0.92045 0.21477,2.75298 0.33694,4.07229c0.37794,4.07787 0.43986,4.8569 0.66914,8.42351c0.12217,1.90226 0.38268,4.91464 0.57877,6.69418c0.45604,4.13282 0.48616,6.93405 0.1099,10.15283c-0.13639,1.1659 -0.34587,3.17416 -0.46552,4.46278c-0.11994,1.28863 -0.2951,2.74461 -0.3891,3.23552c-0.20752,1.08167 -0.2131,1.72765 -0.04323,4.96485c0.11408,2.17449 0.10766,2.7117 -0.04714,4.01651c-0.26107,2.19876 -0.9634,7.65284 -1.07888,8.37665c-0.05439,0.34224 -0.07252,1.29616 -0.03989,2.11982c0.05606,1.41666 0.0371,1.60214 -0.35117,3.44973c-0.22565,1.07386 -0.51043,2.58005 -0.63232,3.34709c-0.48644,3.05645 -1.06382,5.07669 -1.62947,5.70288c-0.77485,0.85741 -1.16395,0.93802 -5.88837,1.21778c-2.08635,0.12356 -4.94811,0.29873 -6.35947,0.3891c-3.18169,0.20389 -4.27591,0.20417 -7.31478,0.00167c-2.38313,-0.15871 -3.76631,-0.21923 -7.84753,-0.34364c-3.286,-0.10013 -3.78556,-0.24155 -4.19585,-1.1885c-0.37487,-0.86494 -0.40974,-1.91091 -0.10711,-3.21321c0.38213,-1.64537 0.41643,-1.82277 0.76704,-3.96072c0.45241,-2.75967 0.65714,-4.23937 0.79465,-5.74583c0.06443,-0.70568 0.27474,-2.33738 0.46776,-3.62601c0.67416,-4.50741 0.38045,-9.87447 -0.63539,-11.60798c-0.83064,-1.41721 -2.63109,-1.84731 -8.87285,-2.11926c-0.88977,-0.03877 -1.74327,-0.09149 -1.89668,-0.11743c-0.99158,-0.16708 -5.81278,-0.16987 -8.70243,-0.00502c-1.74885,0.10013 -3.7069,0.2117 -4.35121,0.24796c-1.22587,0.06945 -3.00318,0.30877 -5.35534,0.72102c-3.14292,0.55087 -6.36365,0.07531 -6.92373,-1.02254c-0.35786,-0.70094 -0.91961,-6.01667 -1.21918,-11.53462c-0.06332,-1.1659 -0.13807,-2.34575 -0.16596,-2.62189c-0.02789,-0.27613 -0.08145,-0.90371 -0.1191,-1.39462c-0.03765,-0.49091 -0.16652,-1.89668 -0.28645,-3.12395c-0.38464,-3.93924 -0.42647,-4.42875 -0.54585,-6.41525c-0.12133,-2.01411 -0.58881,-7.1558 -0.77625,-8.53507c-0.05829,-0.42954 -0.20947,-2.11146 -0.33582,-3.73758c-0.25828,-3.32729 -0.34587,-4.22347 -0.72994,-7.47516c-0.14839,-1.25795 -0.34698,-3.17806 -0.4407,-4.26698c-0.094,-1.08892 -0.30096,-2.57001 -0.46022,-3.2913c-0.93467,-4.23267 -0.34057,-5.98487 2.29192,-6.75861c2.60989,-0.76704 7.19038,-1.86349 11.22362,-2.68632c4.38608,-0.89479 5.85601,-1.21109 7.59928,-1.63421c3.30162,-0.80135 3.49436,-0.41197 4.33643,8.76351c0.09567,1.04318 0.31881,3.05143 0.49565,4.46278c0.17684,1.41136 0.40388,3.3443 0.50429,4.29543c0.20808,1.9706 0.54502,4.75091 0.78378,6.47104c0.08954,0.64431 0.26637,1.99989 0.39272,3.01238c0.33666,2.69859 0.35702,2.81881 1.57481,9.31606c0.37683,2.01104 0.71879,2.90806 1.30481,3.4224c1.67717,1.47272 5.4789,1.42419 6.80881,-0.08675c1.35055,-1.53408 1.42921,-6.52961 0.18158,-11.53602c-0.70317,-2.82132 -1.16004,-5.49955 -1.78874,-10.48754c-0.21282,-1.68749 -0.46078,-3.54513 -0.55115,-4.12807c-0.18716,-1.20635 -0.46329,-3.47372 -0.56398,-4.63014c-0.13946,-1.60102 -0.29678,-2.72704 -0.6312,-4.51857c-0.63957,-3.42463 -0.27753,-6.02309 0.92575,-6.64536c0.79661,-0.41169 6.03424,-1.35055 11.77701,-2.1109c1.17678,-0.15564 2.55745,-0.35368 3.06816,-0.43986c0.51071,-0.08619 1.93267,-0.28924 3.15993,-0.45158c1.22727,-0.16205 3.13511,-0.44907 4.23965,-0.63734c1.10454,-0.18855 2.3848,-0.40556 2.84503,-0.48226" fill="#f9f9f9"/><path d="M263.31874,129.09965c3.06621,-0.51211 7.4456,0.30403 8.62266,1.6066c0.82561,0.91403 2.05651,4.10967 2.58312,6.70617c0.15564,0.76704 0.40835,1.94215 0.56147,2.61129c0.15313,0.66914 0.35312,1.74858 0.44461,2.39875c0.09149,0.65017 0.34029,2.28662 0.55311,3.63661c0.21282,1.34999 0.41811,2.75577 0.4566,3.12395c0.08117,0.78099 0.39803,3.30832 0.71349,5.69005c0.31742,2.39624 0.43931,3.56855 0.56956,5.46691c0.06304,0.92045 0.21477,2.75298 0.33694,4.07229c0.37794,4.07787 0.43986,4.8569 0.66914,8.42351c0.12217,1.90226 0.38268,4.91464 0.57877,6.69418c0.45604,4.13282 0.48616,6.93405 0.1099,10.15283c-0.13639,1.1659 -0.34587,3.17416 -0.46552,4.46278c-0.11994,1.28863 -0.2951,2.74461 -0.3891,3.23552c-0.20752,1.08167 -0.2131,1.72765 -0.04323,4.96485c0.11408,2.17449 0.10766,2.7117 -0.04714,4.01651c-0.26107,2.19876 -0.9634,7.65284 -1.07888,8.37665c-0.05439,0.34224 -0.07252,1.29616 -0.03989,2.11982c0.05606,1.41666 0.0371,1.60214 -0.35117,3.44973c-0.22565,1.07386 -0.51043,2.58005 -0.63232,3.34709c-0.48644,3.05645 -1.06382,5.07669 -1.62947,5.70288c-0.77485,0.85741 -1.16395,0.93802 -5.88837,1.21778c-2.08635,0.12356 -4.94811,0.29873 -6.35947,0.3891c-3.18169,0.20389 -4.27591,0.20417 -7.31478,0.00167c-2.38313,-0.15871 -3.76631,-0.21923 -7.84753,-0.34364c-3.286,-0.10013 -3.78556,-0.24155 -4.19585,-1.1885c-0.37487,-0.86494 -0.40974,-1.91091 -0.10711,-3.21321c0.38213,-1.64537 0.41643,-1.82277 0.76704,-3.96072c0.45241,-2.75967 0.65714,-4.23937 0.79465,-5.74583c0.06443,-0.70568 0.27474,-2.33738 0.46776,-3.62601c0.67416,-4.50741 0.38045,-9.87447 -0.63539,-11.60798c-0.83064,-1.41721 -2.63109,-1.84731 -8.87285,-2.11926c-0.88977,-0.03877 -1.74327,-0.09149 -1.89668,-0.11743c-0.99158,-0.16708 -5.81278,-0.16987 -8.70243,-0.00502c-1.74885,0.10013 -3.7069,0.2117 -4.35121,0.24796c-1.22587,0.06945 -3.00318,0.30877 -5.35534,0.72102c-3.14292,0.55087 -6.36365,0.07531 -6.92373,-1.02254c-0.35786,-0.70094 -0.91961,-6.01667 -1.21918,-11.53462c-0.06332,-1.1659 -0.13807,-2.34575 -0.16596,-2.62189c-0.02789,-0.27613 -0.08145,-0.90371 -0.1191,-1.39462c-0.03765,-0.49091 -0.16652,-1.89668 -0.28645,-3.12395c-0.38464,-3.93924 -0.42647,-4.42875 -0.54585,-6.41525c-0.12133,-2.01411 -0.58881,-7.1558 -0.77625,-8.53507c-0.05829,-0.42954 -0.20947,-2.11146 -0.33582,-3.73758c-0.25828,-3.32729 -0.34587,-4.22347 -0.72994,-7.47516c-0.14839,-1.25795 -0.34698,-3.17806 -0.4407,-4.26698c-0.094,-1.08892 -0.30096,-2.57001 -0.46022,-3.2913c-0.93467,-4.23267 -0.34057,-5.98487 2.29192,-6.75861c2.60989,-0.76704 7.19038,-1.86349 11.22362,-2.68632c4.38608,-0.89479 5.85601,-1.21109 7.59928,-1.63421c3.30162,-0.80135 3.49436,-0.41197 4.33643,8.76351c0.09567,1.04318 0.31881,3.05143 0.49565,4.46278c0.17684,1.41136 0.40388,3.3443 0.50429,4.29543c0.20808,1.9706 0.54502,4.75091 0.78378,6.47104c0.08954,0.64431 0.26637,1.99989 0.39272,3.01238c0.33666,2.69859 0.35702,2.81881 1.57481,9.31606c0.37683,2.01104 0.71879,2.90806 1.30481,3.4224c1.67717,1.47272 5.4789,1.42419 6.80881,-0.08675c1.35055,-1.53408 1.42921,-6.52961 0.18158,-11.53602c-0.70317,-2.82132 -1.16004,-5.49955 -1.78874,-10.48754c-0.21282,-1.68749 -0.46078,-3.54513 -0.55115,-4.12807c-0.18716,-1.20635 -0.46329,-3.47372 -0.56398,-4.63014c-0.13946,-1.60102 -0.29678,-2.72704 -0.6312,-4.51857c-0.63957,-3.42463 -0.27753,-6.02309 0.92575,-6.64536c0.79661,-0.41169 6.03424,-1.35055 11.77701,-2.1109c1.17678,-0.15564 2.55745,-0.35368 3.06816,-0.43986c0.51071,-0.08619 1.93267,-0.28924 3.15993,-0.45158c1.22727,-0.16205 3.13511,-0.44907 4.23965,-0.63734c1.10454,-0.18855 2.3848,-0.40556 2.84503,-0.48226" fill="#f9f9f9"/><path d="M262.61208,130.64215c2.97329,-0.49659 7.21996,0.29481 8.36135,1.55791c0.80059,0.88634 1.99418,3.98513 2.50484,6.50294c0.15092,0.7438 0.39597,1.88329 0.54446,2.53215c0.14849,0.64886 0.34242,1.69559 0.43113,2.32606c0.08871,0.63047 0.32998,2.21732 0.53634,3.52641c0.20637,1.30908 0.40544,2.67226 0.44276,3.02928c0.07871,0.75732 0.38596,3.20806 0.69187,5.51762c0.3078,2.32362 0.42599,3.46041 0.5523,5.30124c0.06113,0.89256 0.20826,2.66955 0.32673,3.94888c0.36649,3.95429 0.42653,4.70972 0.64886,8.16824c0.11847,1.84461 0.37109,4.76571 0.56123,6.49131c0.44222,4.00758 0.47143,6.72392 0.10657,9.84516c-0.13226,1.13057 -0.33538,3.07796 -0.45142,4.32754c-0.1163,1.24958 -0.28616,2.66144 -0.37731,3.13747c-0.20123,1.04889 -0.20664,1.6753 -0.04192,4.81439c0.11062,2.1086 0.1044,2.62952 -0.04571,3.89479c-0.25316,2.13213 -0.93421,7.42092 -1.04618,8.1228c-0.05274,0.33187 -0.07032,1.25688 -0.03868,2.05558c0.05437,1.37373 0.03597,1.55359 -0.34052,3.34519c-0.21881,1.04131 -0.49496,2.50186 -0.61316,3.24566c-0.4717,2.96383 -1.03158,4.92285 -1.58009,5.53006c-0.75137,0.83143 -1.12868,0.9096 -5.70992,1.18088c-2.02313,0.11982 -4.79816,0.28967 -6.16675,0.37731c-3.08527,0.19772 -4.14633,0.19799 -7.09311,0.00162c-2.31091,-0.1539 -3.65218,-0.21259 -7.60971,-0.33322c-3.18642,-0.0971 -3.67084,-0.23423 -4.0687,-1.15248c-0.36351,-0.83873 -0.39732,-1.853 -0.10386,-3.11583c0.37055,-1.59551 0.40381,-1.76753 0.7438,-3.8407c0.4387,-2.67604 0.63723,-4.1109 0.77057,-5.57171c0.06248,-0.68429 0.26641,-2.26655 0.45358,-3.51613c0.65373,-4.37082 0.36892,-9.57523 -0.61614,-11.25621c-0.80546,-1.37427 -2.55136,-1.79133 -8.60397,-2.05504c-0.8628,-0.0376 -1.69045,-0.08871 -1.83921,-0.11387c-0.96153,-0.16201 -5.63662,-0.16472 -8.43871,-0.00487c-1.69586,0.0971 -3.59457,0.20529 -4.21935,0.24045c-1.18872,0.06735 -2.91217,0.29941 -5.19305,0.69917c-3.04767,0.53418 -6.1708,0.07303 -6.71391,-0.99155c-0.34702,-0.67969 -0.89174,-5.83434 -1.18223,-11.18508c-0.0614,-1.13057 -0.13388,-2.27467 -0.16093,-2.54243c-0.02705,-0.26777 -0.07898,-0.87633 -0.11549,-1.35236c-0.03651,-0.47603 -0.16147,-1.83921 -0.27777,-3.02928c-0.37298,-3.81987 -0.41355,-4.29454 -0.52931,-6.22084c-0.11765,-1.95307 -0.57097,-6.93895 -0.75272,-8.27642c-0.05653,-0.41653 -0.20312,-2.04747 -0.32565,-3.62432c-0.25046,-3.22645 -0.33538,-4.09548 -0.70782,-7.24863c-0.14389,-1.21983 -0.33647,-3.08175 -0.42734,-4.13767c-0.09115,-1.05592 -0.29184,-2.49212 -0.44628,-3.19156c-0.90635,-4.1044 -0.33025,-5.8035 2.22246,-6.55379c2.5308,-0.7438 6.97248,-1.80702 10.8835,-2.60491c4.25316,-0.86767 5.67855,-1.17439 7.36899,-1.58469c3.20157,-0.77706 3.38846,-0.39949 4.20502,8.49794c0.09277,1.01156 0.30915,2.95896 0.48063,4.32754c0.17148,1.36859 0.39164,3.24295 0.48901,4.16526c0.20177,1.91088 0.5285,4.60694 0.76003,6.27494c0.08682,0.62479 0.2583,1.93928 0.38082,2.92109c0.32646,2.61681 0.3462,2.73338 1.52708,9.03374c0.36541,1.9501 0.697,2.81993 1.26526,3.31868c1.62634,1.42809 5.31287,1.38103 6.60248,-0.08412c1.30962,-1.48759 1.38589,-6.33174 0.17608,-11.18643c-0.68186,-2.73582 -1.12489,-5.33289 -1.73453,-10.16972c-0.20637,-1.63635 -0.44682,-3.43769 -0.53445,-4.00298c-0.18149,-1.16979 -0.44925,-3.36845 -0.54689,-4.48982c-0.13524,-1.55251 -0.28778,-2.6444 -0.61208,-4.38164c-0.62019,-3.32085 -0.26912,-5.84056 0.89769,-6.44398c0.77247,-0.39922 5.85138,-1.30962 11.42011,-2.04693c1.14112,-0.15092 2.47995,-0.34296 2.97518,-0.42653c0.49523,-0.08358 1.8741,-0.28048 3.06417,-0.43789c1.19007,-0.15714 3.0401,-0.43546 4.11117,-0.61803c1.07107,-0.18284 2.31253,-0.39327 2.75881,-0.46765" fill="#f9f9f9"/><path d="M254.98479,116.05508c2.2982,-0.08925 21.50816,-0.05653 22.77369,0.03895c4.41382,0.33241 7.70438,2.81426 8.54365,6.44398c0.08114,0.35188 0.23152,0.81033 0.33349,1.01859c0.31402,0.64021 0.72351,2.06532 0.85469,2.97518c0.0687,0.47603 0.27264,1.27933 0.45277,1.78511c0.40787,1.14355 0.59477,2.10833 0.69241,3.57022c0.04841,0.72648 0.16742,1.40915 0.32998,1.8933c0.44682,1.33261 0.67942,2.82291 0.796,5.10136c0.06113,1.199 0.16418,2.31875 0.22882,2.48834c0.5477,1.4362 0.71405,2.87078 0.96396,8.31402c0.08466,1.84137 0.15444,2.45696 0.36865,3.24755c0.45196,1.668 0.70972,6.30036 0.71459,12.84415c0.00135,2.08371 0.0495,3.00954 0.21692,4.18338c0.37298,2.616 0.43329,4.67429 0.43275,14.72392c-0.00081,9.76862 -0.07195,12.43141 -0.39029,14.6014c-0.12198,0.83089 -0.19149,2.65035 -0.25587,6.71175c-0.1447,9.12003 -0.25533,11.13477 -0.71215,12.94666c-0.20934,0.83008 -0.29103,1.53925 -0.37217,3.22754c-0.251,5.21523 -0.28535,5.49517 -0.98641,8.06005c-0.05707,0.20826 -0.14984,1.13328 -0.2061,2.05558c-0.1117,1.82568 -0.3059,2.96166 -0.69863,4.08791c-0.13929,0.39949 -0.3765,1.27419 -0.52715,1.94361c-0.48658,2.16377 -1.31179,3.34005 -3.08662,4.40084c-1.92359,1.14977 -2.289,1.19061 -9.73832,1.08865c-8.11225,-0.11089 -12.5753,-0.10521 -24.46116,0.03192c-16.17906,0.18662 -46.70095,0.21584 -48.41438,0.04652c-2.94462,-0.29103 -4.48685,-0.99317 -5.22551,-2.37934c-0.38542,-0.72297 -0.88634,-2.46535 -0.88688,-3.08392c-0.00027,-0.22503 -0.07438,-0.58665 -0.16526,-0.80384c-0.45385,-1.08648 -0.51633,-1.77997 -0.59314,-6.57651c-0.06599,-4.11008 -0.10089,-4.77815 -0.29995,-5.73399c-0.45764,-2.19758 -0.61884,-4.91636 -0.77652,-13.09082c-0.09548,-4.95017 -0.09791,-4.98506 -0.42437,-6.54162c-0.39868,-1.90033 -0.51606,-3.47556 -0.6613,-8.8812c-0.10467,-3.89966 -0.12198,-4.11955 -0.42653,-5.46352c-0.41869,-1.84597 -0.51822,-2.96869 -0.66239,-7.47313c-0.11387,-3.55697 -0.13848,-3.84664 -0.43167,-5.0708c-0.39462,-1.6469 -0.5047,-2.76611 -0.63967,-6.50538c-0.12009,-3.33275 -0.18095,-4.14065 -0.34323,-4.56691c-0.4168,-1.09406 -0.66482,-3.3433 -0.84333,-7.64433c-0.08439,-2.02989 -0.12983,-2.40206 -0.42816,-3.49422c-0.34296,-1.2558 -0.48225,-2.38069 -0.65914,-5.32315c-0.08358,-1.39049 -0.1566,-1.85029 -0.42789,-2.692c-0.18013,-0.55825 -0.40273,-1.53195 -0.49523,-2.16377c-0.17527,-1.19873 -0.28156,-1.61661 -0.59531,-2.33877c-0.53499,-1.23254 -0.53959,-1.28717 -0.53959,-6.61546c0,-4.21908 0.02597,-5.08378 0.16228,-5.41024c0.08925,-0.2134 0.16228,-0.4552 0.16228,-0.53716c0,-1.36182 2.79181,-3.62621 5.11218,-4.14633c0.27047,-0.06059 1.14166,-0.32484 1.93604,-0.58746c0.79464,-0.26263 1.93144,-0.55338 2.52647,-0.64616c0.59504,-0.09277 1.44702,-0.28994 1.8933,-0.43789c1.13598,-0.3765 1.9547,-0.56664 3.08338,-0.71621c0.53553,-0.07086 1.53438,-0.31564 2.21949,-0.54419c0.85658,-0.28535 1.67124,-0.46765 2.60761,-0.58287c0.74893,-0.0925 1.8292,-0.31185 2.40043,-0.48766c1.13057,-0.3481 1.777,-0.47846 3.26675,-0.6586c0.53553,-0.06491 1.53682,-0.28156 2.2249,-0.48171c0.76057,-0.22098 1.84272,-0.43248 2.75881,-0.53959c0.84414,-0.09845 1.98364,-0.31537 2.58949,-0.49307c1.5352,-0.44979 1.87626,-0.51227 3.51613,-0.64453c1.73724,-0.13983 1.84543,-0.15958 3.03063,-0.5496c0.98695,-0.32457 1.96281,-0.47684 4.10981,-0.64048c0.7438,-0.0568 1.62012,-0.18203 1.94739,-0.27832c1.50139,-0.44195 2.33227,-0.59423 3.8407,-0.70377c1.85408,-0.13469 3.12773,-0.32376 4.22639,-0.62722c0.98668,-0.27237 2.20434,-0.41436 4.77788,-0.5569c1.45405,-0.0806 2.33336,-0.18284 2.92109,-0.33998c1.70397,-0.45574 3.39523,-0.66266 6.35851,-0.77787M266.38651,130.59103c-1.06809,-0.13848 -2.7772,-0.11549 -3.77443,0.05112c-0.44628,0.07438 -1.68774,0.28481 -2.75881,0.46765c-1.07107,0.18257 -2.92109,0.46088 -4.11117,0.61803c-1.19007,0.15741 -2.56894,0.35432 -3.06417,0.43789c-0.49523,0.08358 -1.83407,0.27561 -2.97518,0.42653c-5.56874,0.73731 -10.64765,1.64771 -11.42011,2.04693c-1.16681,0.60342 -1.51789,3.12313 -0.89769,6.44398c0.3243,1.73724 0.47684,2.82913 0.61208,4.38164c0.09764,1.12137 0.36541,3.32004 0.54689,4.48982c0.08763,0.56529 0.32808,2.36662 0.53445,4.00298c0.60964,4.83684 1.05268,7.43391 1.73453,10.16972c1.20982,4.85469 1.13355,9.69884 -0.17608,11.18643c-1.28961,1.46514 -4.97613,1.51221 -6.60248,0.08412c-0.56826,-0.49875 -0.89986,-1.36859 -1.26526,-3.31868c-1.18088,-6.30036 -1.20062,-6.41693 -1.52708,-9.03374c-0.12252,-0.98181 -0.294,-2.2963 -0.38082,-2.92109c-0.23152,-1.668 -0.55825,-4.36406 -0.76003,-6.27494c-0.09737,-0.92231 -0.31753,-2.79667 -0.48901,-4.16526c-0.17148,-1.36859 -0.38786,-3.31598 -0.48063,-4.32754c-0.81655,-8.89743 -1.00345,-9.275 -4.20502,-8.49794c-1.69045,0.4103 -3.11583,0.71702 -7.36899,1.58469c-3.91102,0.79789 -8.3527,1.86111 -10.8835,2.60491c-2.55271,0.75029 -3.12881,2.44939 -2.22246,6.55379c0.15444,0.69944 0.35513,2.13564 0.44628,3.19156c0.09088,1.05592 0.28345,2.91785 0.42734,4.13767c0.37244,3.15316 0.45737,4.02218 0.70782,7.24863c0.12252,1.57685 0.26912,3.20779 0.32565,3.62432c0.18176,1.33748 0.63507,6.32335 0.75272,8.27642c0.11576,1.9263 0.15633,2.40098 0.52931,6.22084c0.1163,1.19007 0.24126,2.55325 0.27777,3.02928c0.03651,0.47603 0.08844,1.08459 0.11549,1.35236c0.02705,0.26777 0.09953,1.41186 0.16093,2.54243c0.29049,5.35074 0.83522,10.50538 1.18223,11.18508c0.54311,1.06457 3.66624,1.52573 6.71391,0.99155c2.28089,-0.39976 4.00433,-0.63182 5.19305,-0.69917c0.62479,-0.03516 2.5235,-0.14335 4.21935,-0.24045c2.80208,-0.15985 7.47718,-0.15714 8.43871,0.00487c0.14876,0.02515 0.9764,0.07627 1.83921,0.11387c6.05261,0.26371 7.7985,0.68078 8.60397,2.05504c0.98506,1.68098 1.26986,6.88539 0.61614,11.25621c-0.18717,1.24958 -0.3911,2.83184 -0.45358,3.51613c-0.13334,1.46082 -0.33187,2.89567 -0.77057,5.57171c-0.33998,2.07316 -0.37325,2.24518 -0.7438,3.8407c-0.29346,1.26283 -0.25965,2.2771 0.10386,3.11583c0.39786,0.91825 0.88228,1.05538 4.0687,1.15248c3.95754,0.12063 5.29881,0.17932 7.60971,0.33322c2.94679,0.19636 4.00785,0.19609 7.09311,-0.00162c1.36859,-0.08763 4.14362,-0.25749 6.16675,-0.37731c4.58124,-0.27128 4.95855,-0.34945 5.70992,-1.18088c0.54852,-0.60721 1.10839,-2.56623 1.58009,-5.53006c0.1182,-0.7438 0.39435,-2.20434 0.61316,-3.24566c0.3765,-1.7916 0.39489,-1.97146 0.34052,-3.34519c-0.03165,-0.7987 -0.01406,-1.72371 0.03868,-2.05558c0.11197,-0.70187 0.79302,-5.99067 1.04618,-8.1228c0.15011,-1.26526 0.15633,-1.78619 0.04571,-3.89479c-0.16472,-3.13909 -0.15931,-3.7655 0.04192,-4.81439c0.09115,-0.47603 0.261,-1.88789 0.37731,-3.13747c0.11603,-1.24958 0.31916,-3.19697 0.45142,-4.32754c0.36487,-3.12124 0.33565,-5.83758 -0.10657,-9.84516c-0.19014,-1.72561 -0.44276,-4.6467 -0.56123,-6.49131c-0.22233,-3.45852 -0.28237,-4.21394 -0.64886,-8.16824c-0.11847,-1.27933 -0.2656,-3.05633 -0.32673,-3.94888c-0.12631,-1.84083 -0.24451,-2.97762 -0.5523,-5.30124c-0.3059,-2.30955 -0.61316,-4.7603 -0.69187,-5.51762c-0.03732,-0.35702 -0.23639,-1.7202 -0.44276,-3.02928c-0.20637,-1.30908 -0.44763,-2.89594 -0.53634,-3.52641c-0.08871,-0.63047 -0.28264,-1.67719 -0.43113,-2.32606c-0.14849,-0.64886 -0.39354,-1.78836 -0.54446,-2.53215c-0.51065,-2.51782 -1.70424,-5.61661 -2.50484,-6.50294c-0.67023,-0.7419 -2.29387,-1.31124 -4.58692,-1.60903" fill="#040404"/><path d="M254.98479,116.05508c2.2982,-0.08925 21.50816,-0.05653 22.77369,0.03895c4.41382,0.33241 7.70438,2.81426 8.54365,6.44398c0.08114,0.35188 0.23152,0.81033 0.33349,1.01859c0.31402,0.64021 0.72351,2.06532 0.85469,2.97518c0.0687,0.47603 0.27264,1.27933 0.45277,1.78511c0.40787,1.14355 0.59477,2.10833 0.69241,3.57022c0.04841,0.72648 0.16742,1.40915 0.32998,1.8933c0.44682,1.33261 0.67942,2.82291 0.796,5.10136c0.06113,1.199 0.16418,2.31875 0.22882,2.48834c0.5477,1.4362 0.71405,2.87078 0.96396,8.31402c0.08466,1.84137 0.15444,2.45696 0.36865,3.24755c0.45196,1.668 0.70972,6.30036 0.71459,12.84415c0.00135,2.08371 0.0495,3.00954 0.21692,4.18338c0.37298,2.616 0.43329,4.67429 0.43275,14.72392c-0.00081,9.76862 -0.07195,12.43141 -0.39029,14.6014c-0.12198,0.83089 -0.19149,2.65035 -0.25587,6.71175c-0.1447,9.12003 -0.25533,11.13477 -0.71215,12.94666c-0.20934,0.83008 -0.29103,1.53925 -0.37217,3.22754c-0.251,5.21523 -0.28535,5.49517 -0.98641,8.06005c-0.05707,0.20826 -0.14984,1.13328 -0.2061,2.05558c-0.1117,1.82568 -0.3059,2.96166 -0.69863,4.08791c-0.13929,0.39949 -0.3765,1.27419 -0.52715,1.94361c-0.48658,2.16377 -1.31179,3.34005 -3.08662,4.40084c-1.92359,1.14977 -2.289,1.19061 -9.73832,1.08865c-8.11225,-0.11089 -12.5753,-0.10521 -24.46116,0.03192c-16.17906,0.18662 -46.70095,0.21584 -48.41438,0.04652c-2.94462,-0.29103 -4.48685,-0.99317 -5.22551,-2.37934c-0.38542,-0.72297 -0.88634,-2.46535 -0.88688,-3.08392c-0.00027,-0.22503 -0.07438,-0.58665 -0.16526,-0.80384c-0.45385,-1.08648 -0.51633,-1.77997 -0.59314,-6.57651c-0.06599,-4.11008 -0.10089,-4.77815 -0.29995,-5.73399c-0.45764,-2.19758 -0.61884,-4.91636 -0.77652,-13.09082c-0.09548,-4.95017 -0.09791,-4.98506 -0.42437,-6.54162c-0.39868,-1.90033 -0.51606,-3.47556 -0.6613,-8.8812c-0.10467,-3.89966 -0.12198,-4.11955 -0.42653,-5.46352c-0.41869,-1.84597 -0.51822,-2.96869 -0.66239,-7.47313c-0.11387,-3.55697 -0.13848,-3.84664 -0.43167,-5.0708c-0.39462,-1.6469 -0.5047,-2.76611 -0.63967,-6.50538c-0.12009,-3.33275 -0.18095,-4.14065 -0.34323,-4.56691c-0.4168,-1.09406 -0.66482,-3.3433 -0.84333,-7.64433c-0.08439,-2.02989 -0.12983,-2.40206 -0.42816,-3.49422c-0.34296,-1.2558 -0.48225,-2.38069 -0.65914,-5.32315c-0.08358,-1.39049 -0.1566,-1.85029 -0.42789,-2.692c-0.18013,-0.55825 -0.40273,-1.53195 -0.49523,-2.16377c-0.17527,-1.19873 -0.28156,-1.61661 -0.59531,-2.33877c-0.53499,-1.23254 -0.53959,-1.28717 -0.53959,-6.61546c0,-4.21908 0.02597,-5.08378 0.16228,-5.41024c0.08925,-0.2134 0.16228,-0.4552 0.16228,-0.53716c0,-1.36182 2.79181,-3.62621 5.11218,-4.14633c0.27047,-0.06059 1.14166,-0.32484 1.93604,-0.58746c0.79464,-0.26263 1.93144,-0.55338 2.52647,-0.64616c0.59504,-0.09277 1.44702,-0.28994 1.8933,-0.43789c1.13598,-0.3765 1.9547,-0.56664 3.08338,-0.71621c0.53553,-0.07086 1.53438,-0.31564 2.21949,-0.54419c0.85658,-0.28535 1.67124,-0.46765 2.60761,-0.58287c0.74893,-0.0925 1.8292,-0.31185 2.40043,-0.48766c1.13057,-0.3481 1.777,-0.47846 3.26675,-0.6586c0.53553,-0.06491 1.53682,-0.28156 2.2249,-0.48171c0.76057,-0.22098 1.84272,-0.43248 2.75881,-0.53959c0.84414,-0.09845 1.98364,-0.31537 2.58949,-0.49307c1.5352,-0.44979 1.87626,-0.51227 3.51613,-0.64453c1.73724,-0.13983 1.84543,-0.15958 3.03063,-0.5496c0.98695,-0.32457 1.96281,-0.47684 4.10981,-0.64048c0.7438,-0.0568 1.62012,-0.18203 1.94739,-0.27832c1.50139,-0.44195 2.33227,-0.59423 3.8407,-0.70377c1.85408,-0.13469 3.12773,-0.32376 4.22639,-0.62722c0.98668,-0.27237 2.20434,-0.41436 4.77788,-0.5569c1.45405,-0.0806 2.33336,-0.18284 2.92109,-0.33998c1.70397,-0.45574 3.39523,-0.66266 6.35851,-0.77787M266.38651,130.59103c-1.06809,-0.13848 -2.7772,-0.11549 -3.77443,0.05112c-0.44628,0.07438 -1.68774,0.28481 -2.75881,0.46765c-1.07107,0.18257 -2.92109,0.46088 -4.11117,0.61803c-1.19007,0.15741 -2.56894,0.35432 -3.06417,0.43789c-0.49523,0.08358 -1.83407,0.27561 -2.97518,0.42653c-5.56874,0.73731 -10.64765,1.64771 -11.42011,2.04693c-1.16681,0.60342 -1.51789,3.12313 -0.89769,6.44398c0.3243,1.73724 0.47684,2.82913 0.61208,4.38164c0.09764,1.12137 0.36541,3.32004 0.54689,4.48982c0.08763,0.56529 0.32808,2.36662 0.53445,4.00298c0.60964,4.83684 1.05268,7.43391 1.73453,10.16972c1.20982,4.85469 1.13355,9.69884 -0.17608,11.18643c-1.28961,1.46514 -4.97613,1.51221 -6.60248,0.08412c-0.56826,-0.49875 -0.89986,-1.36859 -1.26526,-3.31868c-1.18088,-6.30036 -1.20062,-6.41693 -1.52708,-9.03374c-0.12252,-0.98181 -0.294,-2.2963 -0.38082,-2.92109c-0.23152,-1.668 -0.55825,-4.36406 -0.76003,-6.27494c-0.09737,-0.92231 -0.31753,-2.79667 -0.48901,-4.16526c-0.17148,-1.36859 -0.38786,-3.31598 -0.48063,-4.32754c-0.81655,-8.89743 -1.00345,-9.275 -4.20502,-8.49794c-1.69045,0.4103 -3.11583,0.71702 -7.36899,1.58469c-3.91102,0.79789 -8.3527,1.86111 -10.8835,2.60491c-2.55271,0.75029 -3.12881,2.44939 -2.22246,6.55379c0.15444,0.69944 0.35513,2.13564 0.44628,3.19156c0.09088,1.05592 0.28345,2.91785 0.42734,4.13767c0.37244,3.15316 0.45737,4.02218 0.70782,7.24863c0.12252,1.57685 0.26912,3.20779 0.32565,3.62432c0.18176,1.33748 0.63507,6.32335 0.75272,8.27642c0.11576,1.9263 0.15633,2.40098 0.52931,6.22084c0.1163,1.19007 0.24126,2.55325 0.27777,3.02928c0.03651,0.47603 0.08844,1.08459 0.11549,1.35236c0.02705,0.26777 0.09953,1.41186 0.16093,2.54243c0.29049,5.35074 0.83522,10.50538 1.18223,11.18508c0.54311,1.06457 3.66624,1.52573 6.71391,0.99155c2.28089,-0.39976 4.00433,-0.63182 5.19305,-0.69917c0.62479,-0.03516 2.5235,-0.14335 4.21935,-0.24045c2.80208,-0.15985 7.47718,-0.15714 8.43871,0.00487c0.14876,0.02515 0.9764,0.07627 1.83921,0.11387c6.05261,0.26371 7.7985,0.68078 8.60397,2.05504c0.98506,1.68098 1.26986,6.88539 0.61614,11.25621c-0.18717,1.24958 -0.3911,2.83184 -0.45358,3.51613c-0.13334,1.46082 -0.33187,2.89567 -0.77057,5.57171c-0.33998,2.07316 -0.37325,2.24518 -0.7438,3.8407c-0.29346,1.26283 -0.25965,2.2771 0.10386,3.11583c0.39786,0.91825 0.88228,1.05538 4.0687,1.15248c3.95754,0.12063 5.29881,0.17932 7.60971,0.33322c2.94679,0.19636 4.00785,0.19609 7.09311,-0.00162c1.36859,-0.08763 4.14362,-0.25749 6.16675,-0.37731c4.58124,-0.27128 4.95855,-0.34945 5.70992,-1.18088c0.54852,-0.60721 1.10839,-2.56623 1.58009,-5.53006c0.1182,-0.7438 0.39435,-2.20434 0.61316,-3.24566c0.3765,-1.7916 0.39489,-1.97146 0.34052,-3.34519c-0.03165,-0.7987 -0.01406,-1.72371 0.03868,-2.05558c0.11197,-0.70187 0.79302,-5.99067 1.04618,-8.1228c0.15011,-1.26526 0.15633,-1.78619 0.04571,-3.89479c-0.16472,-3.13909 -0.15931,-3.7655 0.04192,-4.81439c0.09115,-0.47603 0.261,-1.88789 0.37731,-3.13747c0.11603,-1.24958 0.31916,-3.19697 0.45142,-4.32754c0.36487,-3.12124 0.33565,-5.83758 -0.10657,-9.84516c-0.19014,-1.72561 -0.44276,-4.6467 -0.56123,-6.49131c-0.22233,-3.45852 -0.28237,-4.21394 -0.64886,-8.16824c-0.11847,-1.27933 -0.2656,-3.05633 -0.32673,-3.94888c-0.12631,-1.84083 -0.24451,-2.97762 -0.5523,-5.30124c-0.3059,-2.30955 -0.61316,-4.7603 -0.69187,-5.51762c-0.03732,-0.35702 -0.23639,-1.7202 -0.44276,-3.02928c-0.20637,-1.30908 -0.44763,-2.89594 -0.53634,-3.52641c-0.08871,-0.63047 -0.28264,-1.67719 -0.43113,-2.32606c-0.14849,-0.64886 -0.39354,-1.78836 -0.54446,-2.53215c-0.51065,-2.51782 -1.70424,-5.61661 -2.50484,-6.50294c-0.67023,-0.7419 -2.29387,-1.31124 -4.58692,-1.60903" fill="#040404"/><path d="M254.98479,116.05508c2.2982,-0.08925 21.50816,-0.05653 22.77369,0.03895c4.41382,0.33241 7.70438,2.81426 8.54365,6.44398c0.08114,0.35188 0.23152,0.81033 0.33349,1.01859c0.31402,0.64021 0.72351,2.06532 0.85469,2.97518c0.0687,0.47603 0.27264,1.27933 0.45277,1.78511c0.40787,1.14355 0.59477,2.10833 0.69241,3.57022c0.04841,0.72648 0.16742,1.40915 0.32998,1.8933c0.44682,1.33261 0.67942,2.82291 0.796,5.10136c0.06113,1.199 0.16418,2.31875 0.22882,2.48834c0.5477,1.4362 0.71405,2.87078 0.96396,8.31402c0.08466,1.84137 0.15444,2.45696 0.36865,3.24755c0.45196,1.668 0.70972,6.30036 0.71459,12.84415c0.00135,2.08371 0.0495,3.00954 0.21692,4.18338c0.37298,2.616 0.43329,4.67429 0.43275,14.72392c-0.00081,9.76862 -0.07195,12.43141 -0.39029,14.6014c-0.12198,0.83089 -0.19149,2.65035 -0.25587,6.71175c-0.1447,9.12003 -0.25533,11.13477 -0.71215,12.94666c-0.20934,0.83008 -0.29103,1.53925 -0.37217,3.22754c-0.251,5.21523 -0.28535,5.49517 -0.98641,8.06005c-0.05707,0.20826 -0.14984,1.13328 -0.2061,2.05558c-0.1117,1.82568 -0.3059,2.96166 -0.69863,4.08791c-0.13929,0.39949 -0.3765,1.27419 -0.52715,1.94361c-0.48658,2.16377 -1.31179,3.34005 -3.08662,4.40084c-1.92359,1.14977 -2.289,1.19061 -9.73832,1.08865c-8.11225,-0.11089 -12.5753,-0.10521 -24.46116,0.03192c-16.17906,0.18662 -46.70095,0.21584 -48.41438,0.04652c-2.94462,-0.29103 -4.48685,-0.99317 -5.22551,-2.37934c-0.38542,-0.72297 -0.88634,-2.46535 -0.88688,-3.08392c-0.00027,-0.22503 -0.07438,-0.58665 -0.16526,-0.80384c-0.45385,-1.08648 -0.51633,-1.77997 -0.59314,-6.57651c-0.06599,-4.11008 -0.10089,-4.77815 -0.29995,-5.73399c-0.45764,-2.19758 -0.61884,-4.91636 -0.77652,-13.09082c-0.09548,-4.95017 -0.09791,-4.98506 -0.42437,-6.54162c-0.39868,-1.90033 -0.51606,-3.47556 -0.6613,-8.8812c-0.10467,-3.89966 -0.12198,-4.11955 -0.42653,-5.46352c-0.41869,-1.84597 -0.51822,-2.96869 -0.66239,-7.47313c-0.11387,-3.55697 -0.13848,-3.84664 -0.43167,-5.0708c-0.39462,-1.6469 -0.5047,-2.76611 -0.63967,-6.50538c-0.12009,-3.33275 -0.18095,-4.14065 -0.34323,-4.56691c-0.4168,-1.09406 -0.66482,-3.3433 -0.84333,-7.64433c-0.08439,-2.02989 -0.12983,-2.40206 -0.42816,-3.49422c-0.34296,-1.2558 -0.48225,-2.38069 -0.65914,-5.32315c-0.08358,-1.39049 -0.1566,-1.85029 -0.42789,-2.692c-0.18013,-0.55825 -0.40273,-1.53195 -0.49523,-2.16377c-0.17527,-1.19873 -0.28156,-1.61661 -0.59531,-2.33877c-0.53499,-1.23254 -0.53959,-1.28717 -0.53959,-6.61546c0,-4.21908 0.02597,-5.08378 0.16228,-5.41024c0.08925,-0.2134 0.16228,-0.4552 0.16228,-0.53716c0,-1.36182 2.79181,-3.62621 5.11218,-4.14633c0.27047,-0.06059 1.14166,-0.32484 1.93604,-0.58746c0.79464,-0.26263 1.93144,-0.55338 2.52647,-0.64616c0.59504,-0.09277 1.44702,-0.28994 1.8933,-0.43789c1.13598,-0.3765 1.9547,-0.56664 3.08338,-0.71621c0.53553,-0.07086 1.53438,-0.31564 2.21949,-0.54419c0.85658,-0.28535 1.67124,-0.46765 2.60761,-0.58287c0.74893,-0.0925 1.8292,-0.31185 2.40043,-0.48766c1.13057,-0.3481 1.777,-0.47846 3.26675,-0.6586c0.53553,-0.06491 1.53682,-0.28156 2.2249,-0.48171c0.76057,-0.22098 1.84272,-0.43248 2.75881,-0.53959c0.84414,-0.09845 1.98364,-0.31537 2.58949,-0.49307c1.5352,-0.44979 1.87626,-0.51227 3.51613,-0.64453c1.73724,-0.13983 1.84543,-0.15958 3.03063,-0.5496c0.98695,-0.32457 1.96281,-0.47684 4.10981,-0.64048c0.7438,-0.0568 1.62012,-0.18203 1.94739,-0.27832c1.50139,-0.44195 2.33227,-0.59423 3.8407,-0.70377c1.85408,-0.13469 3.12773,-0.32376 4.22639,-0.62722c0.98668,-0.27237 2.20434,-0.41436 4.77788,-0.5569c1.45405,-0.0806 2.33336,-0.18284 2.92109,-0.33998c1.70397,-0.45574 3.39523,-0.66266 6.35851,-0.77787M266.38651,130.59103c-1.06809,-0.13848 -2.7772,-0.11549 -3.77443,0.05112c-0.44628,0.07438 -1.68774,0.28481 -2.75881,0.46765c-1.07107,0.18257 -2.92109,0.46088 -4.11117,0.61803c-1.19007,0.15741 -2.56894,0.35432 -3.06417,0.43789c-0.49523,0.08358 -1.83407,0.27561 -2.97518,0.42653c-5.56874,0.73731 -10.64765,1.64771 -11.42011,2.04693c-1.16681,0.60342 -1.51789,3.12313 -0.89769,6.44398c0.3243,1.73724 0.47684,2.82913 0.61208,4.38164c0.09764,1.12137 0.36541,3.32004 0.54689,4.48982c0.08763,0.56529 0.32808,2.36662 0.53445,4.00298c0.60964,4.83684 1.05268,7.43391 1.73453,10.16972c1.20982,4.85469 1.13355,9.69884 -0.17608,11.18643c-1.28961,1.46514 -4.97613,1.51221 -6.60248,0.08412c-0.56826,-0.49875 -0.89986,-1.36859 -1.26526,-3.31868c-1.18088,-6.30036 -1.20062,-6.41693 -1.52708,-9.03374c-0.12252,-0.98181 -0.294,-2.2963 -0.38082,-2.92109c-0.23152,-1.668 -0.55825,-4.36406 -0.76003,-6.27494c-0.09737,-0.92231 -0.31753,-2.79667 -0.48901,-4.16526c-0.17148,-1.36859 -0.38786,-3.31598 -0.48063,-4.32754c-0.81655,-8.89743 -1.00345,-9.275 -4.20502,-8.49794c-1.69045,0.4103 -3.11583,0.71702 -7.36899,1.58469c-3.91102,0.79789 -8.3527,1.86111 -10.8835,2.60491c-2.55271,0.75029 -3.12881,2.44939 -2.22246,6.55379c0.15444,0.69944 0.35513,2.13564 0.44628,3.19156c0.09088,1.05592 0.28345,2.91785 0.42734,4.13767c0.37244,3.15316 0.45737,4.02218 0.70782,7.24863c0.12252,1.57685 0.26912,3.20779 0.32565,3.62432c0.18176,1.33748 0.63507,6.32335 0.75272,8.27642c0.11576,1.9263 0.15633,2.40098 0.52931,6.22084c0.1163,1.19007 0.24126,2.55325 0.27777,3.02928c0.03651,0.47603 0.08844,1.08459 0.11549,1.35236c0.02705,0.26777 0.09953,1.41186 0.16093,2.54243c0.29049,5.35074 0.83522,10.50538 1.18223,11.18508c0.54311,1.06457 3.66624,1.52573 6.71391,0.99155c2.28089,-0.39976 4.00433,-0.63182 5.19305,-0.69917c0.62479,-0.03516 2.5235,-0.14335 4.21935,-0.24045c2.80208,-0.15985 7.47718,-0.15714 8.43871,0.00487c0.14876,0.02515 0.9764,0.07627 1.83921,0.11387c6.05261,0.26371 7.7985,0.68078 8.60397,2.05504c0.98506,1.68098 1.26986,6.88539 0.61614,11.25621c-0.18717,1.24958 -0.3911,2.83184 -0.45358,3.51613c-0.13334,1.46082 -0.33187,2.89567 -0.77057,5.57171c-0.33998,2.07316 -0.37325,2.24518 -0.7438,3.8407c-0.29346,1.26283 -0.25965,2.2771 0.10386,3.11583c0.39786,0.91825 0.88228,1.05538 4.0687,1.15248c3.95754,0.12063 5.29881,0.17932 7.60971,0.33322c2.94679,0.19636 4.00785,0.19609 7.09311,-0.00162c1.36859,-0.08763 4.14362,-0.25749 6.16675,-0.37731c4.58124,-0.27128 4.95855,-0.34945 5.70992,-1.18088c0.54852,-0.60721 1.10839,-2.56623 1.58009,-5.53006c0.1182,-0.7438 0.39435,-2.20434 0.61316,-3.24566c0.3765,-1.7916 0.39489,-1.97146 0.34052,-3.34519c-0.03165,-0.7987 -0.01406,-1.72371 0.03868,-2.05558c0.11197,-0.70187 0.79302,-5.99067 1.04618,-8.1228c0.15011,-1.26526 0.15633,-1.78619 0.04571,-3.89479c-0.16472,-3.13909 -0.15931,-3.7655 0.04192,-4.81439c0.09115,-0.47603 0.261,-1.88789 0.37731,-3.13747c0.11603,-1.24958 0.31916,-3.19697 0.45142,-4.32754c0.36487,-3.12124 0.33565,-5.83758 -0.10657,-9.84516c-0.19014,-1.72561 -0.44276,-4.6467 -0.56123,-6.49131c-0.22233,-3.45852 -0.28237,-4.21394 -0.64886,-8.16824c-0.11847,-1.27933 -0.2656,-3.05633 -0.32673,-3.94888c-0.12631,-1.84083 -0.24451,-2.97762 -0.5523,-5.30124c-0.3059,-2.30955 -0.61316,-4.7603 -0.69187,-5.51762c-0.03732,-0.35702 -0.23639,-1.7202 -0.44276,-3.02928c-0.20637,-1.30908 -0.44763,-2.89594 -0.53634,-3.52641c-0.08871,-0.63047 -0.28264,-1.67719 -0.43113,-2.32606c-0.14849,-0.64886 -0.39354,-1.78836 -0.54446,-2.53215c-0.51065,-2.51782 -1.70424,-5.61661 -2.50484,-6.50294c-0.67023,-0.7419 -2.29387,-1.31124 -4.58692,-1.60903" fill="#040404"/><path d="M254.98479,116.05508c2.2982,-0.08925 21.50816,-0.05653 22.77369,0.03895c4.41382,0.33241 7.70438,2.81426 8.54365,6.44398c0.08114,0.35188 0.23152,0.81033 0.33349,1.01859c0.31402,0.64021 0.72351,2.06532 0.85469,2.97518c0.0687,0.47603 0.27264,1.27933 0.45277,1.78511c0.40787,1.14355 0.59477,2.10833 0.69241,3.57022c0.04841,0.72648 0.16742,1.40915 0.32998,1.8933c0.44682,1.33261 0.67942,2.82291 0.796,5.10136c0.06113,1.199 0.16418,2.31875 0.22882,2.48834c0.5477,1.4362 0.71405,2.87078 0.96396,8.31402c0.08466,1.84137 0.15444,2.45696 0.36865,3.24755c0.45196,1.668 0.70972,6.30036 0.71459,12.84415c0.00135,2.08371 0.0495,3.00954 0.21692,4.18338c0.37298,2.616 0.43329,4.67429 0.43275,14.72392c-0.00081,9.76862 -0.07195,12.43141 -0.39029,14.6014c-0.12198,0.83089 -0.19149,2.65035 -0.25587,6.71175c-0.1447,9.12003 -0.25533,11.13477 -0.71215,12.94666c-0.20934,0.83008 -0.29103,1.53925 -0.37217,3.22754c-0.251,5.21523 -0.28535,5.49517 -0.98641,8.06005c-0.05707,0.20826 -0.14984,1.13328 -0.2061,2.05558c-0.1117,1.82568 -0.3059,2.96166 -0.69863,4.08791c-0.13929,0.39949 -0.3765,1.27419 -0.52715,1.94361c-0.48658,2.16377 -1.31179,3.34005 -3.08662,4.40084c-1.92359,1.14977 -2.289,1.19061 -9.73832,1.08865c-8.11225,-0.11089 -12.5753,-0.10521 -24.46116,0.03192c-16.17906,0.18662 -46.70095,0.21584 -48.41438,0.04652c-2.94462,-0.29103 -4.48685,-0.99317 -5.22551,-2.37934c-0.38542,-0.72297 -0.88634,-2.46535 -0.88688,-3.08392c-0.00027,-0.22503 -0.07438,-0.58665 -0.16526,-0.80384c-0.45385,-1.08648 -0.51633,-1.77997 -0.59314,-6.57651c-0.06599,-4.11008 -0.10089,-4.77815 -0.29995,-5.73399c-0.45764,-2.19758 -0.61884,-4.91636 -0.77652,-13.09082c-0.09548,-4.95017 -0.09791,-4.98506 -0.42437,-6.54162c-0.39868,-1.90033 -0.51606,-3.47556 -0.6613,-8.8812c-0.10467,-3.89966 -0.12198,-4.11955 -0.42653,-5.46352c-0.41869,-1.84597 -0.51822,-2.96869 -0.66239,-7.47313c-0.11387,-3.55697 -0.13848,-3.84664 -0.43167,-5.0708c-0.39462,-1.6469 -0.5047,-2.76611 -0.63967,-6.50538c-0.12009,-3.33275 -0.18095,-4.14065 -0.34323,-4.56691c-0.4168,-1.09406 -0.66482,-3.3433 -0.84333,-7.64433c-0.08439,-2.02989 -0.12983,-2.40206 -0.42816,-3.49422c-0.34296,-1.2558 -0.48225,-2.38069 -0.65914,-5.32315c-0.08358,-1.39049 -0.1566,-1.85029 -0.42789,-2.692c-0.18013,-0.55825 -0.40273,-1.53195 -0.49523,-2.16377c-0.17527,-1.19873 -0.28156,-1.61661 -0.59531,-2.33877c-0.53499,-1.23254 -0.53959,-1.28717 -0.53959,-6.61546c0,-4.21908 0.02597,-5.08378 0.16228,-5.41024c0.08925,-0.2134 0.16228,-0.4552 0.16228,-0.53716c0,-1.36182 2.79181,-3.62621 5.11218,-4.14633c0.27047,-0.06059 1.14166,-0.32484 1.93604,-0.58746c0.79464,-0.26263 1.93144,-0.55338 2.52647,-0.64616c0.59504,-0.09277 1.44702,-0.28994 1.8933,-0.43789c1.13598,-0.3765 1.9547,-0.56664 3.08338,-0.71621c0.53553,-0.07086 1.53438,-0.31564 2.21949,-0.54419c0.85658,-0.28535 1.67124,-0.46765 2.60761,-0.58287c0.74893,-0.0925 1.8292,-0.31185 2.40043,-0.48766c1.13057,-0.3481 1.777,-0.47846 3.26675,-0.6586c0.53553,-0.06491 1.53682,-0.28156 2.2249,-0.48171c0.76057,-0.22098 1.84272,-0.43248 2.75881,-0.53959c0.84414,-0.09845 1.98364,-0.31537 2.58949,-0.49307c1.5352,-0.44979 1.87626,-0.51227 3.51613,-0.64453c1.73724,-0.13983 1.84543,-0.15958 3.03063,-0.5496c0.98695,-0.32457 1.96281,-0.47684 4.10981,-0.64048c0.7438,-0.0568 1.62012,-0.18203 1.94739,-0.27832c1.50139,-0.44195 2.33227,-0.59423 3.8407,-0.70377c1.85408,-0.13469 3.12773,-0.32376 4.22639,-0.62722c0.98668,-0.27237 2.20434,-0.41436 4.77788,-0.5569c1.45405,-0.0806 2.33336,-0.18284 2.92109,-0.33998c1.70397,-0.45574 3.39523,-0.66266 6.35851,-0.77787M266.38651,130.59103c-1.06809,-0.13848 -2.7772,-0.11549 -3.77443,0.05112c-0.44628,0.07438 -1.68774,0.28481 -2.75881,0.46765c-1.07107,0.18257 -2.92109,0.46088 -4.11117,0.61803c-1.19007,0.15741 -2.56894,0.35432 -3.06417,0.43789c-0.49523,0.08358 -1.83407,0.27561 -2.97518,0.42653c-5.56874,0.73731 -10.64765,1.64771 -11.42011,2.04693c-1.16681,0.60342 -1.51789,3.12313 -0.89769,6.44398c0.3243,1.73724 0.47684,2.82913 0.61208,4.38164c0.09764,1.12137 0.36541,3.32004 0.54689,4.48982c0.08763,0.56529 0.32808,2.36662 0.53445,4.00298c0.60964,4.83684 1.05268,7.43391 1.73453,10.16972c1.20982,4.85469 1.13355,9.69884 -0.17608,11.18643c-1.28961,1.46514 -4.97613,1.51221 -6.60248,0.08412c-0.56826,-0.49875 -0.89986,-1.36859 -1.26526,-3.31868c-1.18088,-6.30036 -1.20062,-6.41693 -1.52708,-9.03374c-0.12252,-0.98181 -0.294,-2.2963 -0.38082,-2.92109c-0.23152,-1.668 -0.55825,-4.36406 -0.76003,-6.27494c-0.09737,-0.92231 -0.31753,-2.79667 -0.48901,-4.16526c-0.17148,-1.36859 -0.38786,-3.31598 -0.48063,-4.32754c-0.81655,-8.89743 -1.00345,-9.275 -4.20502,-8.49794c-1.69045,0.4103 -3.11583,0.71702 -7.36899,1.58469c-3.91102,0.79789 -8.3527,1.86111 -10.8835,2.60491c-2.55271,0.75029 -3.12881,2.44939 -2.22246,6.55379c0.15444,0.69944 0.35513,2.13564 0.44628,3.19156c0.09088,1.05592 0.28345,2.91785 0.42734,4.13767c0.37244,3.15316 0.45737,4.02218 0.70782,7.24863c0.12252,1.57685 0.26912,3.20779 0.32565,3.62432c0.18176,1.33748 0.63507,6.32335 0.75272,8.27642c0.11576,1.9263 0.15633,2.40098 0.52931,6.22084c0.1163,1.19007 0.24126,2.55325 0.27777,3.02928c0.03651,0.47603 0.08844,1.08459 0.11549,1.35236c0.02705,0.26777 0.09953,1.41186 0.16093,2.54243c0.29049,5.35074 0.83522,10.50538 1.18223,11.18508c0.54311,1.06457 3.66624,1.52573 6.71391,0.99155c2.28089,-0.39976 4.00433,-0.63182 5.19305,-0.69917c0.62479,-0.03516 2.5235,-0.14335 4.21935,-0.24045c2.80208,-0.15985 7.47718,-0.15714 8.43871,0.00487c0.14876,0.02515 0.9764,0.07627 1.83921,0.11387c6.05261,0.26371 7.7985,0.68078 8.60397,2.05504c0.98506,1.68098 1.26986,6.88539 0.61614,11.25621c-0.18717,1.24958 -0.3911,2.83184 -0.45358,3.51613c-0.13334,1.46082 -0.33187,2.89567 -0.77057,5.57171c-0.33998,2.07316 -0.37325,2.24518 -0.7438,3.8407c-0.29346,1.26283 -0.25965,2.2771 0.10386,3.11583c0.39786,0.91825 0.88228,1.05538 4.0687,1.15248c3.95754,0.12063 5.29881,0.17932 7.60971,0.33322c2.94679,0.19636 4.00785,0.19609 7.09311,-0.00162c1.36859,-0.08763 4.14362,-0.25749 6.16675,-0.37731c4.58124,-0.27128 4.95855,-0.34945 5.70992,-1.18088c0.54852,-0.60721 1.10839,-2.56623 1.58009,-5.53006c0.1182,-0.7438 0.39435,-2.20434 0.61316,-3.24566c0.3765,-1.7916 0.39489,-1.97146 0.34052,-3.34519c-0.03165,-0.7987 -0.01406,-1.72371 0.03868,-2.05558c0.11197,-0.70187 0.79302,-5.99067 1.04618,-8.1228c0.15011,-1.26526 0.15633,-1.78619 0.04571,-3.89479c-0.16472,-3.13909 -0.15931,-3.7655 0.04192,-4.81439c0.09115,-0.47603 0.261,-1.88789 0.37731,-3.13747c0.11603,-1.24958 0.31916,-3.19697 0.45142,-4.32754c0.36487,-3.12124 0.33565,-5.83758 -0.10657,-9.84516c-0.19014,-1.72561 -0.44276,-4.6467 -0.56123,-6.49131c-0.22233,-3.45852 -0.28237,-4.21394 -0.64886,-8.16824c-0.11847,-1.27933 -0.2656,-3.05633 -0.32673,-3.94888c-0.12631,-1.84083 -0.24451,-2.97762 -0.5523,-5.30124c-0.3059,-2.30955 -0.61316,-4.7603 -0.69187,-5.51762c-0.03732,-0.35702 -0.23639,-1.7202 -0.44276,-3.02928c-0.20637,-1.30908 -0.44763,-2.89594 -0.53634,-3.52641c-0.08871,-0.63047 -0.28264,-1.67719 -0.43113,-2.32606c-0.14849,-0.64886 -0.39354,-1.78836 -0.54446,-2.53215c-0.51065,-2.51782 -1.70424,-5.61661 -2.50484,-6.50294c-0.67023,-0.7419 -2.29387,-1.31124 -4.58692,-1.60903" fill="#040404"/></g></g></svg>