<svg version="1.1" xmlns="http://www.w3.org/2000/svg" xmlns:xlink="http://www.w3.org/1999/xlink" width="105.41323" height="132.5455" viewBox="0,0,105.41323,132.5455"><g transform="translate(-187.2934,-113.72725)"><g data-paper-data="{&quot;isPaintingLayer&quot;:true}" fill-rule="evenodd" stroke="none" stroke-width="1" stroke-linecap="butt" stroke-linejoin="miter" stroke-miterlimit="10" stroke-dasharray="" stroke-dashoffset="0" style="mix-blend-mode: normal"><path d="M263.9111,126.76646c0.68007,-0.10521 3.91904,0.02953 4.69378,0.19513c1.64414,0.35124 2.60188,0.59859 3.13323,0.80875c2.44103,0.96539 4.13184,6.68441 5.89016,19.92086c0.25816,1.94343 0.54084,4.05563 0.62839,4.69378c0.23284,1.6982 0.55165,4.54743 0.68482,6.11773c0.06408,0.75417 0.25447,2.93757 0.42323,4.85199c0.16876,1.91443 0.38025,4.65449 0.46964,6.08925c0.16956,2.71606 0.52792,6.14806 0.90658,8.67768c0.39185,2.61823 0.39238,4.91607 0.00158,7.9636c-0.49601,3.87131 -0.62417,4.68982 -0.93216,5.95951c-0.32988,1.3604 -0.35414,2.64038 -0.11576,6.12643c0.18775,2.74454 0.16771,6.23086 -0.04694,8.16585c-0.46964,4.23679 -0.7307,6.36402 -0.88681,7.22525c-0.12473,0.68904 -0.1743,1.62911 -0.18063,3.42804l-0.00897,2.47874l-0.49733,2.00408c-0.27345,1.10225 -0.56721,2.5974 -0.65291,3.32256c-0.23864,2.02228 -1.04555,4.6202 -1.62515,5.2333c-0.74626,0.78898 -1.43397,0.91318 -6.92727,1.25071c-2.37853,0.14635 -4.63313,0.28901 -5.01021,0.31696c-4.18353,0.31222 -5.67973,0.31327 -11.02246,0.00817c-1.45032,-0.0828 -3.42013,-0.1772 -4.37734,-0.20964c-6.75429,-0.22994 -6.67571,-0.17984 -6.85977,-4.38446c-0.12816,-2.92781 -0.58092,-14.71683 -0.8404,-21.88671c-0.21122,-5.82846 -0.75997,-6.57208 -5.13283,-6.95575c-0.99571,-0.08728 -2.34847,-0.22889 -3.00613,-0.31459c-4.21596,-0.55007 -6.82206,-0.56457 -11.06808,-0.06223c-0.95695,0.11313 -2.68705,0.27952 -3.84468,0.36996c-2.48928,0.19408 -3.11134,0.284 -4.58329,0.6624c-2.17469,0.55903 -4.80901,0.34808 -5.88937,-0.47149c-1.11807,-0.84831 -1.29606,-2.06553 -1.81053,-12.37258c-0.11734,-2.34952 -0.25816,-5.03131 -0.31274,-5.95951c-0.14741,-2.50537 -0.20964,-3.74922 -0.32144,-6.43416c-0.05538,-1.3343 -0.28875,-4.30087 -0.51842,-6.59238c-0.22968,-2.29151 -0.4707,-4.97329 -0.5353,-5.95951c-0.10469,-1.59536 -0.56747,-6.1325 -0.84435,-8.28003c-0.05617,-0.4351 -0.19777,-1.95636 -0.31432,-3.38057c-0.17536,-2.14041 -0.27741,-2.85397 -0.5891,-4.11365c-0.84804,-3.43015 -0.35836,-5.97428 1.32612,-6.89088c1.14127,-0.621 8.55902,-2.50326 13.3886,-3.39771c0.77948,-0.14424 2.2509,-0.44749 3.26982,-0.67374c1.01918,-0.22625 2.42257,-0.50814 3.11872,-0.62654c0.69616,-0.1184 2.00145,-0.37972 2.90065,-0.58066c0.8992,-0.20094 2.21056,-0.46305 2.91436,-0.5825c0.70354,-0.11945 1.81897,-0.3399 2.47874,-0.48968c0.6595,-0.15004 1.81633,-0.38209 2.5705,-0.51579c4.09677,-0.72622 7.01851,-1.22697 8.33277,-1.42791c0.81218,-0.1242 2.30733,-0.36153 3.32256,-0.52739c1.01523,-0.16586 2.32052,-0.3552 2.90065,-0.42059c1.15789,-0.13079 2.19394,-0.27978 4.74651,-0.68297c0.92821,-0.14661 2.61322,-0.38341 3.74447,-0.52607c1.13125,-0.14266 3.07732,-0.44907 4.3246,-0.68086c1.24728,-0.23179 2.41017,-0.44327 2.58421,-0.47017M223.82942,150.21767c-1.3873,-0.25104 -3.01351,-0.33489 -3.95543,-0.20357c-2.06658,0.28769 -3.18887,0.66451 -3.74447,1.2573l-0.31643,0.33753l0.00844,1.86485c0.01108,2.50326 0.29929,7.10712 0.67453,10.77749c0.16903,1.65337 0.40688,4.00289 0.52897,5.22117c0.93691,9.36672 1.23462,11.39375 1.78627,12.15503c1.47195,2.03204 9.15392,1.73327 10.2414,-0.39844c0.66214,-1.29791 1.03527,-5.90361 0.68297,-8.43403c-0.71778,-5.15867 -1.34669,-10.83999 -1.63702,-14.79172c-0.46015,-6.26197 -0.96803,-7.18833 -4.26923,-7.7856" fill="#fafafa"/><path d="M241.7607,113.79977c0.11603,-0.02637 9.75435,-0.05353 21.41839,-0.06039l21.20717,-0.01213l0.6268,0.37603c1.40339,0.84198 2.91647,3.01852 3.35895,4.83169c0.0973,0.39844 0.26923,0.90527 0.38183,1.12624c0.29217,0.57275 0.69325,2.01516 0.83407,3.00085c0.06645,0.4641 0.2571,1.22355 0.42402,1.68765c0.46331,1.28789 0.64236,2.15386 0.79346,3.83835c0.10416,1.15947 0.21702,1.77731 0.45593,2.49535c0.4351,1.3074 0.63524,2.67809 0.75417,5.16342c0.09045,1.88779 0.13211,2.19816 0.39607,2.95339l0.29508,0.84382v45.19737v45.19737l-0.30246,0.89656c-0.25077,0.74283 -0.31749,1.16764 -0.39053,2.47874c-0.13712,2.46819 -0.31881,3.53589 -0.82668,4.85885c-0.1126,0.29376 -0.32645,1.07693 -0.47492,1.74039c-0.56484,2.52277 -1.47458,3.67143 -3.91218,4.93954c-1.58507,0.82484 -2.96789,0.86756 -18.7751,0.58013c-1.9996,-0.03613 -4.55797,-0.01398 -6.01225,0.05221c-3.97863,0.18169 -56.21825,0.3871 -59.3847,0.2339c-5.9814,-0.2898 -7.46811,-1.3699 -8.07488,-5.86537c-0.04694,-0.34808 -0.18617,-0.98886 -0.30905,-1.42395c-0.25974,-0.9174 -0.29349,-1.49911 -0.4198,-7.22525c-0.06988,-3.17014 -0.12816,-4.24681 -0.25367,-4.69378c-0.41295,-1.46905 -0.65001,-4.9907 -0.7953,-11.81355l-0.08649,-4.06091l-0.32461,-0.62759c-0.17852,-0.34491 -0.35652,-0.81956 -0.39554,-1.05478c-0.03876,-0.23495 -0.12446,-0.52212 -0.19012,-0.63814c-0.08491,-0.14952 -0.13712,-2.53438 -0.17958,-8.17455l-0.06012,-7.9636l-0.32461,-1.26574c-0.51632,-2.01384 -0.60914,-3.04647 -0.76472,-8.52052c-0.09862,-3.46443 -0.11022,-3.59575 -0.41743,-4.74651c-0.46964,-1.75937 -0.7365,-4.6711 -0.74626,-8.14502c-0.00475,-1.62647 -0.13554,-2.99505 -0.35994,-3.76557c-0.50577,-1.73696 -0.64342,-3.00454 -0.79873,-7.36237c-0.08306,-2.3366 -0.13501,-2.90777 -0.31591,-3.48078c-0.55956,-1.77203 -0.53477,-0.98675 -0.50471,-15.97993l0.02769,-13.92311l1.213,-0.60544c0.7249,-0.36179 1.62568,-0.71277 2.23851,-0.8723c0.56404,-0.14661 1.37781,-0.40794 1.80869,-0.58039c0.44591,-0.17852 1.41262,-0.42323 2.24431,-0.56826c0.80374,-0.14002 1.96875,-0.42218 2.58896,-0.62707c0.62047,-0.20515 1.52231,-0.42719 2.00408,-0.4939c1.49331,-0.20621 2.48638,-0.41585 2.98925,-0.63155c0.82748,-0.35467 1.52996,-0.51579 2.97606,-0.68271c0.79557,-0.09203 1.74962,-0.27714 2.21504,-0.43009c1.1745,-0.38605 1.90625,-0.54137 3.42619,-0.72727c0.78449,-0.09599 1.74355,-0.29402 2.30707,-0.47676c1.15973,-0.37603 1.72272,-0.4852 3.53642,-0.68693c0.9021,-0.1002 1.72958,-0.26633 2.37326,-0.47597c1.21774,-0.3966 2.35454,-0.59305 4.20541,-0.72674c1.16263,-0.08386 1.62726,-0.17008 2.53147,-0.46938c1.17766,-0.38974 2.13171,-0.53847 4.44485,-0.69325c1.18162,-0.07884 1.64309,-0.16165 2.58421,-0.46358c1.19375,-0.38315 2.12565,-0.51842 4.83723,-0.70169c1.08511,-0.07357 1.77045,-0.183 2.58421,-0.41347c0.60914,-0.17219 1.20245,-0.33489 1.31848,-0.36153M268.60488,126.96159c-0.77474,-0.1656 -4.01371,-0.30035 -4.69378,-0.19513c-0.17404,0.0269 -1.33694,0.23838 -2.58421,0.47017c-1.24728,0.23179 -3.19335,0.5382 -4.3246,0.68086c-1.13125,0.14266 -2.81627,0.37946 -3.74447,0.52607c-2.55257,0.40319 -3.58863,0.55218 -4.74651,0.68297c-0.58013,0.0654 -1.88542,0.25473 -2.90065,0.42059c-1.01523,0.16586 -2.51038,0.40319 -3.32256,0.52739c-1.31426,0.20094 -4.236,0.70169 -8.33277,1.42791c-0.75417,0.13369 -1.911,0.36575 -2.5705,0.51579c-0.65977,0.14978 -1.7752,0.37023 -2.47874,0.48968c-0.7038,0.11945 -2.01516,0.38157 -2.91436,0.5825c-0.8992,0.20094 -2.20449,0.46226 -2.90065,0.58066c-0.69616,0.1184 -2.09954,0.40029 -3.11872,0.62654c-1.01892,0.22625 -2.49034,0.5295 -3.26982,0.67374c-4.82958,0.89445 -12.24733,2.77671 -13.3886,3.39771c-1.68449,0.9166 -2.17417,3.46074 -1.32612,6.89088c0.31169,1.25967 0.41374,1.97323 0.5891,4.11365c0.11655,1.42422 0.25816,2.94548 0.31432,3.38057c0.27688,2.14753 0.73967,6.68468 0.84435,8.28003c0.06461,0.98622 0.30562,3.668 0.5353,5.95951c0.22968,2.29151 0.46305,5.25808 0.51842,6.59238c0.11181,2.68495 0.17404,3.9288 0.32144,6.43416c0.05458,0.92821 0.1954,3.60999 0.31274,5.95951c0.51447,10.30706 0.69246,11.52427 1.81053,12.37258c1.08036,0.81956 3.71468,1.03052 5.88937,0.47149c1.47195,-0.3784 2.094,-0.46832 4.58329,-0.6624c1.15762,-0.09045 2.88773,-0.25684 3.84468,-0.36996c4.24602,-0.50234 6.85212,-0.48784 11.06808,0.06223c0.65766,0.0857 2.01041,0.22731 3.00613,0.31459c4.37286,0.38368 4.92161,1.1273 5.13283,6.95575c0.25948,7.16987 0.71224,18.9589 0.8404,21.88671c0.18406,4.20462 0.10548,4.15452 6.85977,4.38446c0.95721,0.03243 2.92702,0.12684 4.37734,0.20964c5.34273,0.3051 6.83894,0.30404 11.02246,-0.00817c0.37708,-0.02795 2.63168,-0.17061 5.01021,-0.31696c5.4933,-0.33753 6.18102,-0.46173 6.92727,-1.25071c0.5796,-0.61309 1.38651,-3.21102 1.62515,-5.2333c0.0857,-0.72516 0.37946,-2.22031 0.65291,-3.32256l0.49733,-2.00408l0.00897,-2.47874c0.00633,-1.79893 0.0559,-2.739 0.18063,-3.42804c0.15611,-0.86123 0.41717,-2.98846 0.88681,-7.22525c0.21465,-1.935 0.23469,-5.42131 0.04694,-8.16585c-0.23838,-3.48605 -0.21412,-4.76603 0.11576,-6.12643c0.308,-1.26969 0.43615,-2.0882 0.93216,-5.95951c0.3908,-3.04753 0.39027,-5.34537 -0.00158,-7.9636c-0.37867,-2.52963 -0.73703,-5.96162 -0.90658,-8.67768c-0.08939,-1.43477 -0.30088,-4.17482 -0.46964,-6.08925c-0.16876,-1.91443 -0.35915,-4.09782 -0.42323,-4.85199c-0.13317,-1.57031 -0.45197,-4.41953 -0.68482,-6.11773c-0.08755,-0.63814 -0.37023,-2.75034 -0.62839,-4.69378c-1.75832,-13.23645 -3.44913,-18.95547 -5.89016,-19.92086c-0.53135,-0.21017 -1.48909,-0.45751 -3.13323,-0.80875M219.87399,150.0141c1.34432,-0.18722 4.22914,0.11049 5.59614,0.57776c1.65574,0.56563 2.24827,2.2364 2.62851,7.41142c0.29033,3.95174 0.91924,9.63305 1.63702,14.79172c0.3523,2.53042 -0.02083,7.13612 -0.68297,8.43403c-1.08748,2.13171 -8.76945,2.43048 -10.2414,0.39844c-0.55165,-0.76129 -0.84936,-2.78831 -1.78627,-12.15503c-0.12209,-1.21827 -0.35994,-3.5678 -0.52897,-5.22117c-0.37524,-3.67037 -0.66346,-8.27423 -0.67453,-10.77749l-0.00844,-1.86485l0.31643,-0.33753c0.55561,-0.59279 1.67789,-0.96961 3.74447,-1.2573" fill="#040404"/></g></g></svg>