<svg version="1.1" xmlns="http://www.w3.org/2000/svg" xmlns:xlink="http://www.w3.org/1999/xlink" width="105.94653" height="129.32014" viewBox="0,0,105.94653,129.32014"><g transform="translate(-187.02675,-115.33993)"><g data-paper-data="{&quot;isPaintingLayer&quot;:true}" fill-rule="evenodd" stroke="none" stroke-width="1" stroke-linecap="butt" stroke-linejoin="miter" stroke-miterlimit="10" stroke-dasharray="" stroke-dashoffset="0" style="mix-blend-mode: normal"><path d="M264.03208,127.27898c0.68351,-0.10575 3.93887,0.02968 4.71752,0.19612c2.93281,0.62679 3.52701,0.84438 4.16017,1.52418c1.5377,1.6514 3.04969,6.7222 4.1607,13.95671c0.75719,4.92928 1.85865,13.66465 2.11891,16.80286c0.08931,1.07867 0.28093,3.29697 0.42564,4.92955c0.14497,1.63258 0.33606,4.0894 0.42511,5.4596c0.17545,2.70224 0.29418,3.66668 0.78899,6.40178c0.60188,3.32665 0.22554,6.59711 -1.27029,11.03874c-0.30611,0.90826 -0.57882,1.97155 -0.68351,2.66328c-0.09594,0.63342 -0.38058,1.79557 -0.63263,2.58271c-0.25204,0.78714 -0.53986,1.93206 -0.63952,2.54428c-0.19533,1.19926 -0.73784,2.79871 -1.5059,4.44057c-0.26238,0.56054 -0.87168,2.06988 -1.3543,3.35421c-0.48262,1.28433 -1.00605,2.58934 -1.16321,2.89969c-0.15743,0.31035 -0.57034,1.33469 -0.91806,2.27607c-0.84412,2.28694 -1.15155,3.00596 -2.11414,4.94545c-0.44869,0.90375 -1.13618,2.49923 -1.52763,3.54556c-0.86638,2.3153 -1.04263,2.67256 -2.0174,4.08728c-0.42193,0.61222 -1.22656,1.96228 -1.78842,3.00013c-1.2785,2.36194 -1.35748,2.46504 -3.70326,4.83387c-3.16233,3.19334 -2.97999,3.10906 -7.24087,3.34706c-1.62755,0.09091 -3.46022,0.21149 -4.07244,0.26768c-5.04616,0.46433 -16.44189,0.59393 -23.11056,0.26291c-0.55391,-0.02756 -2.46212,-0.09965 -4.24047,-0.16034c-5.24387,-0.17916 -6.02465,-0.28835 -6.42458,-0.89898c-0.36574,-0.55789 -0.07898,-1.17541 1.28619,-2.7685c0.43014,-0.50223 1.1012,-1.42003 1.49106,-2.03967c0.38986,-0.61964 0.93025,-1.41287 1.20111,-1.76271c0.27086,-0.34984 0.61513,-0.82689 0.76514,-1.06012c1.05402,-1.63788 1.39193,-2.10592 2.13508,-2.96011c0.46089,-0.52926 1.15049,-1.43937 1.53293,-2.02244c0.38217,-0.58306 0.88016,-1.3225 1.1065,-1.64318c0.22607,-0.32069 0.72592,-1.06012 1.11074,-1.64318c1.05826,-1.60396 1.38955,-2.05557 2.34365,-3.19466c0.48182,-0.57511 1.26896,-1.64901 1.74919,-2.38606c1.59468,-2.44781 2.59941,-3.95159 3.17055,-4.74482c0.31061,-0.43147 0.94642,-1.37179 1.41287,-2.08976c0.46645,-0.71796 1.16401,-1.77225 1.55016,-2.34286c0.38615,-0.57061 1.37577,-2.06325 2.19921,-3.31684c0.82345,-1.25359 1.73144,-2.61319 2.01793,-3.02133c0.28623,-0.40815 0.77018,-1.14758 1.07522,-1.64318c0.30531,-0.4956 0.82901,-1.28274 1.16401,-1.74919c0.335,-0.46645 1.0254,-1.61138 1.53452,-2.54428c0.50886,-0.9329 1.37524,-2.37254 1.92491,-3.1989c1.1118,-1.67181 3.39158,-6.04214 3.7287,-7.14811c1.13433,-3.72048 0.77813,-9.48726 -0.64667,-10.4676c-2.54163,-1.74866 -12.40258,-2.27528 -18.47043,-0.98644c-1.45501,0.30902 -2.59596,0.49322 -5.03556,0.81311c-0.67052,0.08772 -2.2925,0.30081 -3.6044,0.47334c-1.3119,0.17253 -3.36322,0.38721 -4.5585,0.47705c-3.85644,0.28968 -4.55797,0.37316 -6.34878,0.75586c-4.38783,0.93767 -7.30951,0.30319 -7.91828,-1.71951c-0.20222,-0.67132 -0.53165,-3.26569 -0.73387,-5.77525c-0.1561,-1.93948 -0.28146,-3.12549 -0.78952,-7.46535c-0.11582,-0.99121 -0.3077,-2.97336 -0.4259,-4.40479c-0.17598,-2.1266 -0.28385,-2.88113 -0.58916,-4.12545c-0.85339,-3.4748 -0.36733,-6.01246 1.3278,-6.93476c1.15129,-0.62653 8.30894,-2.44225 13.62251,-3.45572c0.8746,-0.16697 2.47272,-0.49375 3.55139,-0.72618c1.07867,-0.2327 2.31901,-0.47944 2.75631,-0.54861c0.4373,-0.06917 1.62993,-0.30902 2.65029,-0.53324c1.02036,-0.22421 2.43907,-0.507 3.15252,-0.62865c0.71372,-0.12138 1.90636,-0.35858 2.65029,-0.52714c1.37603,-0.31167 8.0887,-1.50457 10.78802,-1.91696c0.81629,-0.12483 2.31901,-0.36336 3.33937,-0.53006c1.02036,-0.1667 2.33226,-0.35699 2.91532,-0.42272c1.16374,-0.13145 2.20504,-0.2812 4.77053,-0.68643c0.9329,-0.14736 2.62644,-0.38535 3.76342,-0.52873c1.13698,-0.14338 3.09289,-0.45134 4.34648,-0.68431c1.25359,-0.23296 2.42237,-0.44551 2.59729,-0.47255" fill="#f9f9f9"/><path d="M233.02364,115.71654l1.11312,-0.36945l26.08684,-0.00371l26.0871,-0.00345l0.21255,0.23853c0.82398,0.92363 1.83639,2.77565 2.09347,3.82941c0.0978,0.40046 0.27059,0.90985 0.38376,1.13194c0.29365,0.57564 0.69676,2.02535 0.83829,3.01603c0.06679,0.46645 0.2584,1.22974 0.42617,1.69619c0.46566,1.2944 0.64561,2.16476 0.79747,3.85777c0.10469,1.16533 0.21812,1.7863 0.45824,2.50797c0.4373,1.31402 0.63846,2.69164 0.75798,5.18954c0.09091,1.89735 0.13278,2.20928 0.39807,2.96833l0.29657,0.84809v45.42603v45.42603l-0.30425,0.9011c-0.2592,0.76753 -0.3183,1.1603 -0.39834,2.65029c-0.1023,1.90106 -0.38191,3.5392 -0.7882,4.6192c-0.14259,0.3782 -0.35911,1.15023 -0.48156,1.71554c-0.26768,1.23557 -0.56518,1.61775 -0.99598,2.63015c-0.4308,1.0124 -0.03074,0.57209 -0.36839,0.57617c-0.33765,0.00409 -28.79539,0.03854 -47.22585,0c-18.43045,-0.03854 -47.33159,-0.19771 -47.33159,-0.19771c0,0 -0.66284,-2.23632 -0.75268,-2.92963c-0.04532,-0.34984 -0.18526,-0.99386 -0.31088,-1.43116c-0.26423,-0.92045 -0.2963,-1.46323 -0.42723,-7.2618c-0.07156,-3.15517 -0.13278,-4.28499 -0.25867,-4.77053c-0.45347,-1.74628 -0.64137,-4.78829 -0.79853,-12.93343c-0.11688,-6.05884 -0.12668,-6.22845 -0.42935,-7.51623c-0.45108,-1.91775 -0.58227,-3.67437 -0.74076,-9.91395c-0.10363,-4.07668 -0.1137,-4.20893 -0.41239,-5.4066c-0.50038,-2.00654 -0.5942,-3.06984 -0.75242,-8.54269c-0.10124,-3.496 -0.11396,-3.63938 -0.41822,-4.77053c-0.47944,-1.78285 -0.60135,-3.04943 -0.7495,-7.79186c-0.07288,-2.33703 -0.14206,-3.28795 -0.27325,-3.76342c-0.59552,-2.1584 -0.73069,-3.33698 -0.88811,-7.73886c-0.08587,-2.39852 -0.13782,-2.97389 -0.32016,-3.55139c-0.56239,-1.78073 -0.53748,-0.99147 -0.50727,-16.06078l0.02783,-13.99355l1.21914,-0.60851c0.72857,-0.36362 1.63391,-0.71637 2.24983,-0.87672c0.5669,-0.14736 1.38478,-0.41 1.81784,-0.58333c0.44816,-0.17942 1.41976,-0.42537 2.25566,-0.57114c0.80781,-0.14073 1.97235,-0.42219 2.58828,-0.62573c0.61593,-0.20354 1.49848,-0.42564 1.96122,-0.49348c1.93021,-0.28252 2.25089,-0.35222 3.42683,-0.74473c0.89659,-0.29922 1.60555,-0.454 2.60921,-0.56928c0.80092,-0.09223 1.73329,-0.27537 2.22625,-0.43756c1.20615,-0.39701 1.93286,-0.55206 3.46976,-0.73996c0.78846,-0.09647 1.75237,-0.29551 2.31874,-0.47917c1.1656,-0.37793 1.73144,-0.48765 3.55431,-0.6904c0.90667,-0.10071 1.73833,-0.26768 2.38526,-0.47838c1.22391,-0.3986 2.36645,-0.59605 4.22669,-0.73042c1.16851,-0.08428 1.6355,-0.17094 2.54428,-0.47175c1.18071,-0.39092 2.1099,-0.53589 4.5055,-0.70365c1.23424,-0.0864 1.67154,-0.16617 2.59729,-0.47334M268.7496,127.4751c-0.77866,-0.16644 -4.03401,-0.30187 -4.71752,-0.19612c-0.17492,0.02703 -1.3437,0.23959 -2.59729,0.47255c-1.25359,0.23296 -3.20951,0.54092 -4.34648,0.68431c-1.13698,0.14338 -2.83051,0.38138 -3.76342,0.52873c-2.56548,0.40523 -3.60678,0.55497 -4.77053,0.68643c-0.58306,0.06573 -1.89496,0.25602 -2.91532,0.42272c-1.02036,0.1667 -2.52308,0.40523 -3.33937,0.53006c-2.69932,0.41239 -9.41199,1.60528 -10.78802,1.91696c-0.74394,0.16856 -1.93657,0.40576 -2.65029,0.52714c-0.71346,0.12165 -2.13216,0.40443 -3.15252,0.62865c-1.02036,0.22421 -2.213,0.46407 -2.65029,0.53324c-0.4373,0.06917 -1.67764,0.31591 -2.75631,0.54861c-1.07867,0.23243 -2.6768,0.55921 -3.55139,0.72618c-5.31357,1.01347 -12.47122,2.82919 -13.62251,3.45572c-1.69513,0.9223 -2.18119,3.45996 -1.3278,6.93476c0.30531,1.24431 0.41318,1.99885 0.58916,4.12545c0.1182,1.43142 0.31008,3.41358 0.4259,4.40479c0.50806,4.33986 0.63342,5.52586 0.78952,7.46535c0.20222,2.50956 0.53165,5.10394 0.73387,5.77525c0.60877,2.0227 3.53046,2.65718 7.91828,1.71951c1.7908,-0.3827 2.49234,-0.46619 6.34878,-0.75586c1.19528,-0.08984 3.24661,-0.30452 4.5585,-0.47705c1.3119,-0.17253 2.93387,-0.38562 3.6044,-0.47334c2.4396,-0.31989 3.58055,-0.50409 5.03556,-0.81311c7.45634,-1.58355 18.09408,-0.54861 19.20058,1.86793c0.77071,1.684 0.72512,6.93423 -0.08348,9.58611c-0.33712,1.10597 -2.6169,5.4763 -3.7287,7.14811c-0.54967,0.82636 -1.41605,2.266 -1.92491,3.1989c-0.50912,0.9329 -1.19952,2.07783 -1.53452,2.54428c-0.335,0.46645 -0.8587,1.25359 -1.16401,1.74919c-0.30505,0.4956 -0.78899,1.23504 -1.07522,1.64318c-0.2865,0.40815 -1.19449,1.76775 -2.01793,3.02133c-0.82345,1.25359 -1.81307,2.74623 -2.19921,3.31684c-0.38615,0.57061 -1.08371,1.62489 -1.55016,2.34286c-0.46645,0.71796 -1.10226,1.65829 -1.41287,2.08976c-0.57114,0.79323 -1.57586,2.29701 -3.17055,4.74482c-0.48023,0.73705 -1.26737,1.81095 -1.74919,2.38606c-0.95411,1.1391 -1.28539,1.59071 -2.34365,3.19466c-0.38482,0.58306 -0.88467,1.3225 -1.11074,1.64318c-0.22634,0.32069 -0.72433,1.06012 -1.1065,1.64318c-0.38244,0.58306 -1.07204,1.49318 -1.53293,2.02244c-0.74314,0.85419 -1.08105,1.32223 -2.13508,2.96011c-0.15001,0.23323 -0.49428,0.71028 -0.76514,1.06012c-0.27086,0.34984 -0.81125,1.14307 -1.20111,1.76271c-0.38986,0.61964 -1.06091,1.53744 -1.49106,2.03967c-2.68554,3.1345 -2.29436,3.41358 5.13839,3.66748c1.77835,0.06069 3.68656,0.13278 4.24047,0.16034c6.66867,0.33102 18.0644,0.20142 23.11056,-0.26291c0.61222,-0.05619 2.4449,-0.17677 4.07244,-0.26768c4.26088,-0.238 4.07854,-0.15372 7.24087,-3.34706c2.34577,-2.36883 2.42475,-2.47193 3.70326,-4.83387c0.56186,-1.03785 1.36649,-2.38791 1.78842,-3.00013c0.97478,-1.41473 1.15102,-1.77199 2.0174,-4.08728c0.39145,-1.04634 1.07893,-2.64181 1.52763,-3.54556c0.96259,-1.93948 1.27002,-2.65851 2.11414,-4.94545c0.34772,-0.94138 0.76063,-1.96572 0.91806,-2.27607c0.15716,-0.31035 0.6806,-1.61535 1.16321,-2.89969c0.48262,-1.28433 1.09192,-2.79367 1.3543,-3.35421c0.76806,-1.64186 1.31057,-3.24131 1.5059,-4.44057c0.09965,-0.61222 0.38747,-1.75714 0.63952,-2.54428c0.25204,-0.78714 0.53668,-1.94929 0.63263,-2.58271c0.10469,-0.69173 0.3774,-1.75502 0.68351,-2.66328c1.49583,-4.44163 1.87217,-7.71209 1.27029,-11.03874c-0.49481,-2.7351 -0.61354,-3.69954 -0.78899,-6.40178c-0.08905,-1.3702 -0.28014,-3.82702 -0.42511,-5.4596c-0.14471,-1.63258 -0.33632,-3.85088 -0.42564,-4.92955c-0.26026,-3.13821 -1.36172,-11.87358 -2.11891,-16.80286c-1.111,-7.23451 -2.623,-12.30531 -4.1607,-13.95671c-0.63316,-0.6798 -1.22735,-0.89739 -4.16017,-1.52418" fill="#040404"/></g></g></svg>