<svg version="1.1" xmlns="http://www.w3.org/2000/svg" xmlns:xlink="http://www.w3.org/1999/xlink" width="105.36918" height="127.97255" viewBox="0,0,105.36918,127.97255"><g transform="translate(-187.31539,-116.01371)"><g data-paper-data="{&quot;isPaintingLayer&quot;:true}" fill-rule="evenodd" stroke="none" stroke-width="1" stroke-linecap="butt" stroke-linejoin="miter" stroke-miterlimit="10" stroke-dasharray="" stroke-dashoffset="0" style="mix-blend-mode: normal"><path d="M254.57223,116.11753c3.16883,-0.13779 20.96829,-0.13866 22.80633,-0.00116c2.804,0.20943 4.57213,0.85706 6.4714,2.3707c0.84753,0.67536 2.14856,2.8531 2.47989,4.15125c0.08117,0.31775 0.31688,1.01969 0.524,1.55986c0.20683,0.54018 0.46594,1.47609 0.57542,2.07982c0.10977,0.60373 0.34866,1.55322 0.53064,2.11014c0.36512,1.11675 0.62568,2.51311 0.74844,4.01087c0.04391,0.53873 0.15599,1.18867 0.24871,1.44431c0.51071,1.40936 0.69963,2.55355 0.83973,5.08688c0.08926,1.6185 0.18978,2.38746 0.45294,3.46636c0.44629,1.83053 0.46218,1.97727 0.64243,6.00835c0.13432,2.99522 0.19585,3.6313 0.45265,4.67958c0.4356,1.77709 0.51995,3.00909 0.6511,9.53249c0.07857,3.89012 0.17823,6.36395 0.29377,7.27935c0.34808,2.75836 0.39343,4.44272 0.39488,14.67425c0.00144,10.18445 -0.05171,12.21314 -0.3995,15.25198c-0.1141,0.99629 -0.21202,3.77862 -0.29117,8.26149c-0.13259,7.52258 -0.20943,8.74765 -0.68432,10.91903c-0.27298,1.24818 -0.34115,1.89263 -0.40354,3.81299c-0.10515,3.2422 -0.25131,4.6429 -0.65052,6.23742c-0.24351,0.97231 -0.38101,1.89408 -0.4616,3.09575c-0.12652,1.88137 -0.29869,2.84299 -0.79091,4.4147c-0.17939,0.57311 -0.4177,1.4319 -0.5292,1.90852c-0.511,2.18063 -1.65259,3.55504 -3.79884,4.57444c-1.64825,0.78282 -1.32184,0.76549 -13.65139,0.72216c-6.10079,-0.02167 -23.07728,0.03293 -37.72554,0.12103c-30.6273,0.18429 -31.15303,0.1739 -33.40646,-0.67276c-1.89754,-0.71291 -2.66216,-1.87154 -3.16825,-4.80264c-0.08781,-0.5084 -0.27182,-1.31433 -0.40874,-1.79095c-0.2282,-0.79466 -0.25651,-1.26002 -0.34086,-5.60395c-0.0777,-4.00856 -0.12768,-4.92512 -0.32526,-5.95867c-0.42781,-2.2384 -0.6329,-5.82753 -0.77155,-13.51071c-0.0468,-2.5833 -0.12912,-4.31157 -0.23369,-4.91068c-0.08897,-0.5084 -0.24062,-1.3565 -0.3371,-1.88454c-0.23889,-1.30884 -0.39545,-3.86615 -0.51447,-8.39899c-0.09186,-3.49582 -0.12479,-3.9141 -0.39517,-5.02622c-0.31024,-1.27678 -0.47836,-2.69076 -0.60459,-5.08399c-0.06759,-1.28082 -0.10601,-1.47696 -0.33884,-1.73318c-1.16181,-1.27735 -1.14621,-1.04164 -0.95729,-14.55871c0.01704,-1.22073 -0.02686,-1.63208 -0.28424,-2.65754c-0.43098,-1.71729 -0.52775,-2.5833 -0.67363,-6.028c-0.11352,-2.67458 -0.16898,-3.20985 -0.46045,-4.42885c-0.38072,-1.59366 -0.52486,-2.71994 -0.6797,-5.31508c-0.08724,-1.45818 -0.17303,-2.03909 -0.40585,-2.74969c-0.28164,-0.86024 -0.64041,-2.60959 -0.64157,-3.12926c-0.00058,-0.24207 -0.4746,-1.5096 -0.61846,-1.65345c-0.04073,-0.04073 -0.07424,-0.21116 -0.07424,-0.3787c0,-0.16725 -0.06499,-0.36917 -0.14443,-0.4486c-0.25305,-0.25275 -0.26835,-10.28353 -0.01675,-11.04266c0.83655,-2.52524 2.20489,-3.76215 5.18741,-4.68825c0.44485,-0.13808 1.35477,-0.42781 2.02204,-0.64388c0.66727,-0.21578 1.86317,-0.52284 2.65754,-0.68258c0.79437,-0.15945 1.86028,-0.42058 2.36868,-0.58061c0.5084,-0.16003 1.5743,-0.39892 2.36868,-0.53064c0.79437,-0.13172 1.80828,-0.35992 2.25313,-0.50724c1.23171,-0.40816 1.64017,-0.50147 2.81497,-0.64301c0.59506,-0.07164 1.70747,-0.30706 2.47238,-0.52284c0.76462,-0.21607 1.99373,-0.47547 2.7312,-0.57657c0.73718,-0.10081 2.01684,-0.35761 2.84328,-0.57022c0.82615,-0.21289 1.84006,-0.42087 2.25313,-0.46276c1.19791,-0.12132 2.0671,-0.28453 3.1073,-0.5835c1.25771,-0.36137 1.9686,-0.485 3.60646,-0.62683c0.75855,-0.06586 1.78517,-0.24496 2.36261,-0.41221c1.47985,-0.42896 1.86548,-0.49511 3.97967,-0.68489c1.2476,-0.11208 2.22916,-0.26777 2.84039,-0.45063c1.17394,-0.35155 2.08588,-0.49136 4.24485,-0.65052c1.05175,-0.07742 2.12546,-0.2334 2.78349,-0.40441c1.53675,-0.39921 2.26931,-0.49829 5.04731,-0.68172c1.83659,-0.12161 2.77107,-0.2386 3.62899,-0.45525c1.42698,-0.36021 2.90019,-0.53324 5.50227,-0.64619M265.76626,130.20885c-1.68898,-0.17505 -2.73727,-0.08897 -5.61146,0.46131c-1.01247,0.19412 -2.85512,0.48269 -4.09435,0.64128c-1.23922,0.15888 -2.85108,0.38939 -3.58191,0.51215c-0.73082,0.12277 -2.34268,0.35761 -3.58191,0.52169c-4.83875,0.64041 -13.2282,2.04111 -16.92738,2.82595c-0.8897,0.18863 -3.61946,0.74036 -6.06613,1.22594c-9.77311,1.93972 -11.38901,2.28202 -14.992,3.17576c-4.03455,1.00062 -5.16372,1.35477 -5.82724,1.82735c-1.41225,1.00611 -1.78489,3.30084 -1.04337,6.42692c0.2516,1.06013 0.41047,2.16532 0.53988,3.75522c0.1011,1.23922 0.36339,3.81299 0.58293,5.71949c0.21954,1.9065 0.48067,4.35028 0.58033,5.43063c0.55202,5.98929 0.79986,6.18485 6.29404,4.96671c0.98502,-0.21838 2.51889,-0.50349 3.40859,-0.63319c0.8897,-0.1297 2.0336,-0.31602 2.542,-0.41394c2.04833,-0.3943 2.85484,-0.52169 4.67958,-0.73978c1.04857,-0.12508 2.83115,-0.38361 3.96089,-0.57397c1.74965,-0.29522 3.16507,-0.4668 6.09155,-0.73862c2.03562,-0.1892 5.7426,0.46045 6.40439,1.12252c1.10086,1.10086 1.54975,5.05626 0.86283,7.60201c-0.54422,2.01684 -1.4033,2.40768 -6.6895,3.04404c-4.33006,0.52111 -20.40559,3.61454 -23.12292,4.44965c-2.39988,0.73718 -3.14341,1.85681 -2.64541,3.98371c0.11063,0.47258 0.25073,2.17716 0.46594,5.66172c0.06673,1.08035 0.22156,3.16016 0.34404,4.62181c0.29782,3.5562 0.54393,7.457 0.69558,11.03457c0.06875,1.62052 0.22502,4.45427 0.3475,6.29722c0.12219,1.84295 0.27384,4.20874 0.33653,5.25731c0.78022,12.99278 0.74556,12.87897 3.80231,12.49854c1.54513,-0.19238 3.28178,-0.23889 11.45718,-0.30619c9.5995,-0.07886 20.92352,-0.262 25.07333,-0.40528c1.87472,-0.06471 7.36024,-0.17245 12.19003,-0.23918c11.13914,-0.15425 11.18449,-0.15974 12.03,-1.43767c0.46594,-0.70425 1.14072,-2.97096 1.31462,-4.41614c0.06702,-0.55779 0.33537,-1.86981 0.59593,-2.91492c0.90299,-3.62292 0.43098,-5.38152 -1.6003,-5.96445c-0.30504,-0.08753 -1.8779,-0.31919 -3.49553,-0.51475c-1.61735,-0.19556 -3.62234,-0.48125 -4.45514,-0.63521c-4.46958,-0.82557 -11.47538,-1.37528 -19.17936,-1.50527c-12.24145,-0.20683 -13.09446,-0.34201 -13.58293,-2.15608c-0.36743,-1.3643 -0.57108,-5.72151 -0.29753,-6.36366c0.511,-1.19878 2.36723,-1.84064 5.90783,-2.04197c1.1439,-0.06528 2.54777,-0.1453 3.11972,-0.17823c0.57195,-0.03293 2.46978,-0.13663 4.2174,-0.23022c1.74762,-0.09359 3.54146,-0.19556 3.98631,-0.22618c0.44485,-0.03062 2.1867,0.02022 3.87077,0.11295c1.68407,0.09302 4.91905,0.27153 7.18865,0.3969c3.43921,0.18978 4.3731,0.27962 5.60395,0.53873c1.89263,0.39805 2.94265,0.39834 4.4898,0.00144c0.63983,-0.16436 1.70574,-0.37985 2.36868,-0.47894c2.86783,-0.42954 3.28871,-0.89894 3.62668,-4.04466c0.10226,-0.95267 0.3761,-3.49987 0.60835,-5.66056c0.52718,-4.90201 0.57253,-7.91399 0.17245,-11.43898c-0.34144,-3.00967 -0.67998,-6.85848 -0.89403,-10.16798c-0.09879,-1.5252 -0.25622,-3.57902 -0.34981,-4.56404c-0.09359,-0.98502 -0.24929,-2.72196 -0.34635,-3.8595c-0.20278,-2.38139 -0.55086,-5.59124 -0.79669,-7.34839c-0.0933,-0.66727 -0.32844,-2.44292 -0.52284,-3.94616c-1.42179,-11.0054 -2.97905,-16.89301 -4.90374,-18.54069c-0.71956,-0.61586 -2.75575,-1.18058 -5.15274,-1.42872" fill="#050505"/><path d="M262.92789,130.21983c2.09628,-0.22069 4.40054,0.03813 6.65657,0.74758c2.91232,0.9157 4.51089,5.83821 6.23829,19.21085c0.19441,1.50324 0.42954,3.27889 0.52284,3.94616c0.24582,1.75715 0.5939,4.967 0.79669,7.34839c0.09706,1.13754 0.25275,2.87448 0.34635,3.8595c0.09359,0.98502 0.25102,3.03884 0.34981,4.56404c0.21405,3.3095 0.5526,7.15832 0.89403,10.16798c0.40008,3.525 0.35472,6.53697 -0.17245,11.43898c-0.23225,2.1607 -0.50609,4.70789 -0.60835,5.66056c-0.33797,3.14572 -0.75884,3.61512 -3.62668,4.04466c-0.66294,0.09908 -1.72885,0.31457 -2.36868,0.47894c-1.54715,0.3969 -2.59717,0.39661 -4.4898,-0.00144c-1.23085,-0.25911 -2.16474,-0.34895 -5.60395,-0.53873c-2.2696,-0.12537 -5.50458,-0.30388 -7.18865,-0.3969c-1.68407,-0.09272 -3.42592,-0.14356 -3.87077,-0.11295c-0.44485,0.03062 -2.23869,0.13259 -3.98631,0.22618c-1.74762,0.09359 -3.64545,0.19729 -4.2174,0.23022c-0.57195,0.03293 -1.97582,0.11295 -3.11972,0.17823c-3.5406,0.20134 -5.39683,0.84319 -5.90783,2.04197c-0.27355,0.64214 -0.0699,4.99936 0.29753,6.36366c0.48847,1.81406 1.34148,1.94925 13.58293,2.15608c4.55797,0.07684 6.42547,0.17072 11.75211,0.59072c3.64459,0.28742 4.80408,0.43012 7.42725,0.91454c0.83279,0.15396 2.83779,0.43965 4.45514,0.63521c1.61763,0.19556 3.1905,0.42723 3.49553,0.51475c2.03129,0.58293 2.50329,2.34152 1.6003,5.96445c-0.26055,1.04511 -0.52891,2.35712 -0.59593,2.91492c-0.1739,1.44518 -0.84868,3.71189 -1.31462,4.41614c-0.8455,1.27793 -0.89085,1.28342 -12.03,1.43767c-4.82979,0.06673 -10.3153,0.17447 -12.19003,0.23918c-4.14981,0.14328 -15.47383,0.32641 -25.07333,0.40528c-8.17541,0.06731 -9.91205,0.11381 -11.45718,0.30619c-3.05675,0.38043 -3.02209,0.49424 -3.80231,-12.49854c-0.06268,-1.04857 -0.21434,-3.41436 -0.33653,-5.25731c-0.12248,-1.84295 -0.27875,-4.67669 -0.3475,-6.29722c-0.15165,-3.57757 -0.39776,-7.47838 -0.69558,-11.03457c-0.12248,-1.46165 -0.27731,-3.54146 -0.34404,-4.62181c-0.2152,-3.48456 -0.3553,-5.18914 -0.46594,-5.66172c-0.498,-2.1269 0.24553,-3.24653 2.64541,-3.98371c2.71734,-0.8351 18.79286,-3.92854 23.12292,-4.44965c5.2862,-0.63636 6.14528,-1.0272 6.6895,-3.04404c0.68692,-2.54575 0.23802,-6.50116 -0.86283,-7.60201c-0.66179,-0.66207 -4.36877,-1.31173 -6.40439,-1.12252c-2.92647,0.27182 -4.3419,0.4434 -6.09155,0.73862c-1.12974,0.19036 -2.91232,0.44889 -3.96089,0.57397c-1.82475,0.21809 -2.63126,0.34548 -4.67958,0.73978c-0.5084,0.09793 -1.6523,0.28424 -2.542,0.41394c-0.8897,0.1297 -2.42356,0.41481 -3.40859,0.63319c-5.49418,1.21814 -5.74202,1.02258 -6.29404,-4.96671c-0.09966,-1.08035 -0.36079,-3.52413 -0.58033,-5.43063c-0.21954,-1.9065 -0.48182,-4.48027 -0.58293,-5.71949c-0.12941,-1.5899 -0.28829,-2.69509 -0.53988,-3.75522c-0.74151,-3.12608 -0.36888,-5.42081 1.04337,-6.42692c0.66352,-0.47258 1.79269,-0.82673 5.82724,-1.82735c3.60299,-0.89374 5.21889,-1.23605 14.992,-3.17576c2.44667,-0.48558 5.17643,-1.03731 6.06613,-1.22594c3.69918,-0.78484 12.08864,-2.18554 16.92738,-2.82595c1.23922,-0.16407 2.85108,-0.39892 3.58191,-0.52169c0.73082,-0.12277 2.34268,-0.35328 3.58191,-0.51215c1.23922,-0.15859 3.08188,-0.44716 4.09435,-0.64128c1.01275,-0.19383 2.26064,-0.39661 2.77309,-0.45034" fill="#fbfbfb"/></g></g></svg>