<svg version="1.1" xmlns="http://www.w3.org/2000/svg" xmlns:xlink="http://www.w3.org/1999/xlink" width="107.64303" height="130.68963" viewBox="0,0,107.64303,130.68963"><g transform="translate(-186.17849,-114.65519)"><g data-paper-data="{&quot;isPaintingLayer&quot;:true}" fill-rule="evenodd" stroke="none" stroke-width="1" stroke-linecap="butt" stroke-linejoin="miter" stroke-miterlimit="10" stroke-dasharray="" stroke-dashoffset="0" style="mix-blend-mode: normal"><path d="M254.75084,114.77103c3.28795,-0.1499 21.30759,-0.15612 23.24764,-0.00809c6.07704,0.46371 9.15662,3.68355 10.51851,10.99746c0.11383,0.61144 0.26404,1.25522 0.33433,1.43063c0.32096,0.80457 0.61299,2.19632 0.77689,3.70469c0.09828,0.90409 0.26404,1.89496 0.36823,2.20161c0.38409,1.13206 0.68452,3.05407 0.80861,5.17357c0.09237,1.57835 0.21148,2.50204 0.43385,3.35886c0.43727,1.68472 0.55483,2.75644 0.69603,6.34451c0.06873,1.74474 0.17447,3.39618 0.23481,3.66986c0.06065,0.27369 0.19749,0.86148 0.30448,1.30622c0.32003,1.3311 0.45562,3.60611 0.58593,9.82777c0.07869,3.77312 0.19096,6.44869 0.31038,7.40193c0.60273,4.81001 0.60086,24.18159 -0.0028,29.46712c-0.12223,1.06892 -0.22952,3.99797 -0.311,8.47552c-0.13964,7.68743 -0.24849,9.47851 -0.69603,11.44499c-0.25378,1.1162 -0.33278,1.91424 -0.42825,4.32888c-0.13778,3.49414 -0.26094,4.59355 -0.69167,6.18309c-0.21522,0.794 -0.35828,1.75345 -0.43634,2.92345c-0.13342,2.00847 -0.24507,2.66096 -0.73522,4.29187c-0.19531,0.65 -0.39093,1.37775 -0.43541,1.61723c-0.46402,2.51603 -1.57182,4.08101 -3.69039,5.21369c-1.90335,1.01761 -0.68017,0.94203 -15.34375,0.94546c-7.18422,0.00156 -24.0065,0.07869 -37.38283,0.17105c-33.48687,0.2317 -33.64859,0.22392 -35.86015,-1.71768c-0.76414,-0.67084 -1.70929,-3.13711 -1.70929,-4.4595c0,-0.23014 -0.05598,-0.5228 -0.1244,-0.65062c-0.38036,-0.71065 -0.51005,-2.15775 -0.61797,-6.90432c-0.08988,-3.94075 -0.15706,-5.10857 -0.35734,-6.22011c-0.33837,-1.87412 -0.49388,-4.35438 -0.63943,-10.20097c-0.18194,-7.30427 -0.20464,-7.72568 -0.48237,-9.03408c-0.3872,-1.82218 -0.4973,-3.24098 -0.64627,-8.32001c-0.12067,-4.10434 -0.17292,-4.83706 -0.4351,-6.0957c-0.44443,-2.13412 -0.53338,-3.10134 -0.68203,-7.43147c-0.11569,-3.3741 -0.17914,-4.1513 -0.43448,-5.31974c-0.44847,-2.05326 -0.53804,-2.94242 -0.6839,-6.79733c-0.11196,-2.94957 -0.18349,-3.75228 -0.43789,-4.89647c-0.4438,-1.99883 -0.52902,-2.77386 -0.68235,-6.22011c-0.11912,-2.66873 -0.18971,-3.33056 -0.49761,-4.66508c-0.37507,-1.625 -0.5483,-3.03044 -0.68235,-5.53589c-0.05847,-1.0938 -0.17354,-1.81005 -0.43105,-2.68024c-0.19314,-0.65311 -0.41519,-1.63278 -0.49357,-2.17704c-0.13467,-0.93737 -0.57194,-2.49209 -0.95292,-3.38871c-0.25844,-0.60833 -0.24663,-10.89296 0.01306,-11.34734c0.09765,-0.17105 0.18038,-0.42297 0.18349,-0.55981c0.05038,-2.23519 3.89099,-4.40134 10.14188,-5.72001c0.82106,-0.17292 1.84862,-0.4267 2.28309,-0.56354c0.43479,-0.13684 1.44244,-0.36263 2.23924,-0.50196c0.79711,-0.13933 1.96835,-0.41706 2.60311,-0.61703c0.63445,-0.19998 1.78206,-0.45096 2.55024,-0.55763c0.76787,-0.10636 1.9839,-0.3589 2.70232,-0.56106c0.71842,-0.20247 1.92201,-0.45624 2.67465,-0.56447c0.75263,-0.10792 1.98421,-0.35797 2.73684,-0.55483c0.75263,-0.19718 2.04019,-0.45002 2.86125,-0.56168c0.82106,-0.11196 2.10862,-0.36232 2.86125,-0.55701c1.60728,-0.41519 1.8085,-0.45002 3.60766,-0.62357c0.75263,-0.07278 1.84426,-0.26529 2.42584,-0.42825c1.53232,-0.42888 2.23146,-0.5483 4.04307,-0.69043c0.91716,-0.07184 2.10177,-0.25627 2.73684,-0.42608c1.54041,-0.41208 2.33378,-0.53866 4.34257,-0.69385c0.95168,-0.0734 2.46316,-0.2939 3.35886,-0.48984c1.8763,-0.41053 2.26723,-0.46029 5.03735,-0.63787c1.29627,-0.08335 2.50048,-0.23979 3.3035,-0.4295c1.6362,-0.38658 3.01364,-0.54924 5.67833,-0.67053M267.91569,129.5049c-2.35213,-0.44878 -4.28068,-0.36481 -8.07681,0.35081c-0.92368,0.17385 -2.40718,0.40742 -3.29666,0.51844c-0.88947,0.11103 -2.84881,0.38938 -4.35407,0.61859c-1.50527,0.22921 -3.26866,0.48175 -3.91866,0.56106c-0.65,0.07931 -2.55335,0.36388 -4.22967,0.63227c-1.67632,0.26809 -3.27178,0.52 -3.54546,0.5595c-2.24173,0.32282 -10.11451,1.84613 -22.76558,4.40477c-4.1796,0.84531 -10.81832,2.4557 -12.13356,2.94304c-2.32974,0.86366 -3.2074,3.18065 -2.41931,6.38805c0.37725,1.53512 0.54986,2.63981 0.68048,4.35407c0.07558,0.99211 0.32749,3.51125 0.55981,5.59809c0.23232,2.08685 0.48455,4.68996 0.56074,5.7847c0.07589,1.09474 0.32967,3.86579 0.56385,6.1579c0.23419,2.29211 0.48579,5.11915 0.5595,6.28231c0.0734,1.16316 0.32562,4.21785 0.56043,6.788c0.23481,2.57015 0.48579,5.76106 0.55794,7.09092c0.21957,4.05022 0.70038,9.80693 0.8733,10.45413c0.4945,1.8511 0.64347,1.88283 10.13442,2.16024c16.63194,0.4861 16.31098,0.46869 17.24369,0.94452c1.40139,0.715 1.91237,3.89658 0.97562,6.07425c-0.67923,1.57897 -0.96318,1.63869 -8.95135,1.87941c-2.22369,0.06687 -4.60288,0.1499 -5.28709,0.18443c-0.68421,0.03421 -3.17536,0.1216 -5.53589,0.19407c-6.463,0.1978 -6.91489,0.28985 -7.52322,1.53295c-0.74766,1.52859 -0.82634,3.52462 -0.26311,6.67324c0.30354,1.69622 0.41426,2.82424 0.75978,7.74807c0.32282,4.60039 0.67457,5.03548 3.75943,4.65171c0.8733,-0.10854 2.34342,-0.22797 3.26711,-0.26498c0.92368,-0.03701 3.2189,-0.13746 5.10049,-0.2233c8.75169,-0.39809 19.15046,-0.02364 25.21693,0.90813c3.33242,0.51191 4.48438,0.49512 8.42295,-0.12254c1.71644,-0.26902 3.96065,-0.60366 4.98697,-0.74393c7.91135,-1.07888 11.50035,-3.30505 13.5561,-8.40772c0.57785,-1.43405 1.29627,-2.74773 2.13132,-3.89658c1.43498,-1.97457 2.22866,-4.70209 2.41433,-8.29482c0.06345,-1.23158 0.17105,-2.60311 0.23885,-3.04785c1.02849,-6.74819 1.12895,-16.06777 0.25502,-23.65475c-0.32967,-2.86218 -1.70773,-3.80546 -4.60039,-3.14799c-1.73199,0.39373 -2.69797,0.56137 -4.2729,0.74206c-0.90005,0.10325 -2.58787,0.325 -3.75104,0.49294c-1.16316,0.16794 -3.03852,0.41675 -4.16747,0.55297c-3.78556,0.45593 -13.07715,1.98266 -16.35888,2.68802c-5.96104,1.28103 -11.38466,1.1896 -12.56399,-0.2121c-0.794,-0.94328 -1.34976,-7.73097 -0.73304,-8.95353c0.45407,-0.90067 1.71177,-1.56778 3.46926,-1.84053c0.54737,-0.0849 2.00536,-0.34179 3.24036,-0.57101c1.23469,-0.2289 2.94211,-0.50663 3.79426,-0.61703c0.85184,-0.11041 2.38883,-0.3617 3.41515,-0.55825c1.02632,-0.19686 2.70575,-0.4494 3.73206,-0.56137c1.02632,-0.11196 2.81771,-0.36419 3.98087,-0.56012c1.16316,-0.19593 2.53469,-0.39062 3.04785,-0.43261c1.97395,-0.16141 4.74096,-0.45376 6.53111,-0.6895c1.02632,-0.13529 2.08996,-0.27275 2.36364,-0.30572c0.27369,-0.03297 2.31699,-0.1468 4.54068,-0.25316c6.49908,-0.311 6.74384,-0.38129 7.33755,-2.10706c0.60397,-1.75562 0.60366,-3.41142 -0.00156,-6.29786c-0.19469,-0.92866 -0.44598,-2.41216 -0.55857,-3.29666c-3.11316,-24.44936 -3.91058,-26.78159 -9.5236,-27.8527" fill="#050505"/><path d="M262.63793,129.36868c2.13257,-0.32469 5.05415,-0.06531 7.31609,0.64907c3.51933,1.11185 4.68996,5.38817 7.48527,27.33985c0.11258,0.8845 0.36388,2.36799 0.55857,3.29666c0.60522,2.88644 0.60553,4.54223 0.00156,6.29786c-0.59371,1.72577 -0.83847,1.79605 -7.33755,2.10706c-2.22369,0.10636 -4.26699,0.22019 -4.54068,0.25316c-0.27369,0.03297 -1.33732,0.17043 -2.36364,0.30572c-1.79015,0.23574 -4.55716,0.52809 -6.53111,0.6895c-0.51316,0.04199 -1.88469,0.23668 -3.04785,0.43261c-1.16316,0.19593 -2.95455,0.44816 -3.98087,0.56012c-1.02632,0.11196 -2.70575,0.3645 -3.73206,0.56137c-1.02632,0.19655 -2.5633,0.44785 -3.41515,0.55825c-0.85215,0.11041 -2.55957,0.38813 -3.79426,0.61703c-1.235,0.22921 -2.69299,0.4861 -3.24036,0.57101c-1.75749,0.27275 -3.01519,0.93986 -3.46926,1.84053c-0.61672,1.22256 -0.06095,8.01025 0.73304,8.95353c1.17933,1.4017 6.60295,1.49314 12.56399,0.2121c3.28173,-0.70536 12.57332,-2.23208 16.35888,-2.68802c1.12895,-0.13622 3.00431,-0.38502 4.16747,-0.55297c1.16316,-0.16794 2.85098,-0.38969 3.75104,-0.49294c1.57493,-0.18069 2.54091,-0.34833 4.2729,-0.74206c2.89266,-0.65746 4.27073,0.28581 4.60039,3.14799c0.87392,7.58697 0.77347,16.90655 -0.25502,23.65475c-0.0678,0.44474 -0.1754,1.81627 -0.23885,3.04785c-0.18567,3.59273 -0.97935,6.32025 -2.41433,8.29482c-0.83505,1.14885 -1.55347,2.46254 -2.13132,3.89658c-2.05575,5.10266 -5.64475,7.32884 -13.5561,8.40772c-1.02632,0.14026 -3.27053,0.4749 -4.98697,0.74393c-3.93857,0.61766 -5.09053,0.63445 -8.42295,0.12254c-6.06647,-0.93177 -16.46524,-1.30622 -25.21693,-0.90813c-1.88158,0.08584 -4.1768,0.18629 -5.10049,0.2233c-0.92368,0.03701 -2.39381,0.15644 -3.26711,0.26498c-3.08486,0.38378 -3.43661,-0.05132 -3.75943,-4.65171c-0.34553,-4.92384 -0.45624,-6.05185 -0.75978,-7.74807c-0.56323,-3.14862 -0.48455,-5.14465 0.26311,-6.67324c0.60833,-1.24309 1.06022,-1.33514 7.52322,-1.53295c2.36053,-0.07246 4.85168,-0.15986 5.53589,-0.19407c0.68421,-0.03452 3.0634,-0.11756 5.28709,-0.18443c7.98817,-0.24072 8.27212,-0.30043 8.95135,-1.87941c0.93675,-2.17766 0.42577,-5.35924 -0.97562,-6.07425c-0.9327,-0.47584 -0.61175,-0.45842 -17.24369,-0.94452c-9.49095,-0.27742 -9.63992,-0.30914 -10.13442,-2.16024c-0.17292,-0.6472 -0.65373,-6.40391 -0.8733,-10.45413c-0.07215,-1.32986 -0.32313,-4.52077 -0.55794,-7.09092c-0.23481,-2.57015 -0.48703,-5.62484 -0.56043,-6.788c-0.07371,-1.16316 -0.32531,-3.9902 -0.5595,-6.28231c-0.23419,-2.29211 -0.48797,-5.06316 -0.56385,-6.1579c-0.0762,-1.09474 -0.32842,-3.69785 -0.56074,-5.7847c-0.23232,-2.08685 -0.48423,-4.60599 -0.55981,-5.59809c-0.13062,-1.71426 -0.30323,-2.81895 -0.68048,-4.35407c-0.78809,-3.2074 0.08957,-5.52439 2.41931,-6.38805c1.31524,-0.48734 7.95396,-2.09773 12.13356,-2.94304c12.65107,-2.55864 20.52386,-4.08194 22.76558,-4.40477c0.27369,-0.0395 1.86914,-0.29141 3.54546,-0.5595c1.67632,-0.2684 3.57967,-0.55297 4.22967,-0.63227c0.65,-0.07931 2.4134,-0.33184 3.91866,-0.56106c1.50527,-0.22921 3.4646,-0.50756 4.35407,-0.61859c0.88947,-0.11103 2.37297,-0.34459 3.29666,-0.51844c0.92368,-0.17416 2.18326,-0.39342 2.79905,-0.48703" fill="#fbfbfb"/></g></g></svg>