<svg version="1.1" xmlns="http://www.w3.org/2000/svg" xmlns:xlink="http://www.w3.org/1999/xlink" width="105.59435" height="126.65416" viewBox="0,0,105.59435,126.65416"><g transform="translate(-187.20285,-116.67292)"><g data-paper-data="{&quot;isPaintingLayer&quot;:true}" fill-rule="evenodd" stroke="none" stroke-width="1" stroke-linecap="butt" stroke-linejoin="miter" stroke-miterlimit="10" stroke-dasharray="" stroke-dashoffset="0" style="mix-blend-mode: normal"><path d="M262.93034,130.02523c2.78734,-0.4304 6.93826,0.35939 7.90125,1.5037c0.82015,0.97492 1.807,3.64381 2.46399,6.66342c0.23336,1.0733 0.49898,2.29297 0.59004,2.71036c0.09107,0.41739 0.23878,1.28336 0.32822,1.92462c0.08971,0.64127 0.3041,2.00729 0.47675,3.0356c0.17292,1.02832 0.41577,2.74803 0.53991,3.82134c0.1244,1.0733 0.34584,2.82962 0.49247,3.90292c0.393,2.87949 0.57026,4.55314 0.69981,6.61328c0.06369,1.01368 0.13985,2.0138 0.1694,2.2225c0.14717,1.04837 0.60224,6.38697 0.75321,8.83578c0.02927,0.47703 0.10652,1.72108 0.1713,2.76457c0.06478,1.04349 0.23878,3.06813 0.38649,4.4992c0.14799,1.43108 0.31441,3.04103 0.36969,3.57767c0.1694,1.64194 0.12007,3.06704 -0.21412,6.20538c-0.17645,1.65548 -0.37376,3.71726 -0.43881,4.58186c-0.06478,0.8646 -0.20084,2.08427 -0.30221,2.71036c-0.20355,1.25841 -0.22902,2.91554 -0.09351,6.12542c0.08023,1.90132 0.06533,2.21843 -0.19515,4.11974c-0.15504,1.13294 -0.35343,2.62092 -0.44098,3.30664c-0.08728,0.68573 -0.2396,1.88099 -0.33826,2.65616c-0.09893,0.77516 -0.18701,2.26315 -0.19596,3.30664c-0.01409,1.63001 -0.05665,2.07288 -0.3041,3.14402c-0.29516,1.27957 -0.57596,2.77351 -0.89496,4.76237c-0.09974,0.62176 -0.32606,1.61755 -0.50278,2.21274c-0.72313,2.43418 -0.81717,2.47863 -5.8926,2.78219c-1.9081,0.1141 -3.76199,0.23255 -4.11974,0.26291c-1.73056,0.14745 -3.39473,0.22496 -4.82444,0.22496c-1.52648,0 -2.24581,-0.03713 -5.31231,-0.27375c-0.80498,-0.06207 -2.63447,-0.13471 -4.06554,-0.161c-4.84613,-0.08918 -4.4374,0.53611 -4.60707,-7.04586c-0.06017,-2.68326 -0.13471,-5.53727 -0.16588,-6.34224c-0.03117,-0.80498 -0.12657,-3.24431 -0.21222,-5.42073c-0.08592,-2.17642 -0.18458,-4.98164 -0.21981,-6.23383c-0.08077,-2.87543 -0.24366,-6.23166 -0.38406,-7.91426c-0.35207,-4.21733 -0.54965,-6.9632 -0.69764,-9.70309c-0.21711,-4.01865 -0.35696,-6.11377 -0.48841,-7.31797c-0.05854,-0.53665 -0.15611,-1.65874 -0.21655,-2.49353c-0.06071,-0.83479 -0.15558,-2.05445 -0.21114,-2.71036c-0.05528,-0.65591 -0.13119,-1.92436 -0.16859,-2.81878c-0.22821,-5.44864 -0.50115,-5.64677 -8.51135,-6.17638c-6.41083,-0.42363 -9.60309,-0.46943 -12.63029,-0.18079c-3.24729,0.30952 -5.97553,0.50928 -9.10682,0.66702c-1.19255,0.06017 -2.65778,0.15856 -3.25596,0.21845c-2.54828,0.25587 -2.56807,0.21655 -3.19633,-6.2913c-0.11789,-1.22237 -0.26236,-2.56401 -0.32091,-2.9814c-0.15341,-1.09444 -0.525,-4.51357 -0.60088,-5.52914c-0.10435,-1.39556 -0.25992,-2.45667 -0.5437,-3.7075c-0.45832,-2.02112 -0.33771,-3.77634 0.31874,-4.63716c0.45182,-0.59221 1.27631,-0.88601 5.35919,-1.91026c3.43891,-0.8627 5.28873,-1.26601 12.59343,-2.74641c1.04349,-0.21141 2.97056,-0.60251 4.28237,-0.86921c1.31182,-0.26671 3.04374,-0.61308 3.84871,-0.76974c0.80498,-0.15666 1.65874,-0.32768 1.89725,-0.38027c0.23851,-0.05259 1.43378,-0.2705 2.65616,-0.48435c1.22237,-0.21385 3.00308,-0.53069 3.95713,-0.70388c0.95405,-0.17292 2.46643,-0.4155 3.36085,-0.53881c0.89442,-0.12332 2.13848,-0.31684 2.76457,-0.43014c1.07087,-0.19352 1.96094,-0.32416 4.82444,-0.7074c0.65591,-0.08782 2.31465,-0.32904 3.68609,-0.53584c1.37144,-0.20681 2.76186,-0.40547 3.08982,-0.44124c1.41047,-0.15449 2.41547,-0.30329 3.68609,-0.54586c0.74535,-0.1423 1.6479,-0.3041 2.00567,-0.35939" fill="#fafafa"/><path d="M240.48854,116.89705c0.62853,-0.19813 1.35545,-0.20545 21.46608,-0.21465l20.81558,-0.00948l0.37918,0.23119c1.36928,0.83452 2.8494,2.98005 3.24946,4.71007c0.0813,0.35263 0.23201,0.81203 0.33419,1.02073c0.31467,0.64154 0.72502,2.06963 0.85647,2.9814c0.06884,0.47703 0.27321,1.282 0.45372,1.78884c0.40872,1.14595 0.59601,2.11273 0.69385,3.57767c0.04852,0.728 0.16778,1.41209 0.33067,1.89725c0.44775,1.33539 0.68084,2.8288 0.79766,5.11201c0.06125,1.2015 0.16452,2.32359 0.2293,2.49353c0.54885,1.4392 0.71553,2.87678 0.96597,8.33138c0.08483,1.84521 0.15476,2.46209 0.36943,3.25433c0.45289,1.67148 0.7112,6.31352 0.71608,12.87097c0.00136,2.08807 0.0496,3.01582 0.21737,4.19212c0.37376,2.62147 0.4342,4.68405 0.43366,14.75468c-0.00081,9.78901 -0.07209,12.45737 -0.39111,14.63189c-0.12224,0.83262 -0.1919,2.65588 -0.2564,6.72577c-0.145,9.13907 -0.25587,11.15802 -0.71364,12.97369c-0.20979,0.83181 -0.29163,1.54247 -0.37295,3.23428c-0.25152,5.22612 -0.28594,5.50665 -0.98847,8.07688c-0.05718,0.2087 -0.15015,1.13564 -0.20653,2.05988c-0.11194,1.82949 -0.30654,2.96785 -0.70008,4.09644c-0.13958,0.40033 -0.37728,1.27685 -0.52825,1.94767c-0.48759,2.16829 -1.31452,3.34702 -3.09307,4.41003c-1.92761,1.15217 -2.29378,1.19311 -9.75866,1.09092c-8.12919,-0.11113 -12.60156,-0.10544 -24.51225,0.03198c-16.21285,0.18701 -46.79847,0.21629 -48.51548,0.04662c-2.95077,-0.29163 -4.49622,-0.99525 -5.23641,-2.3843c-0.38623,-0.72449 -0.88818,-2.47049 -0.88873,-3.09035c-0.00027,-0.2255 -0.07454,-0.58787 -0.1656,-0.80552c-0.45479,-1.08875 -0.51741,-1.78369 -0.59438,-6.59025c-0.06613,-4.11867 -0.10109,-4.78813 -0.30057,-5.74597c-0.45859,-2.20217 -0.62013,-4.92662 -0.77814,-13.11816c-0.09568,-4.96051 -0.09812,-4.99547 -0.42525,-6.55529c-0.3995,-1.9043 -0.51714,-3.48281 -0.66268,-8.89974c-0.10489,-3.90781 -0.12224,-4.12815 -0.42742,-5.47494c-0.41956,-1.84982 -0.51931,-2.97489 -0.66377,-7.48874c-0.1141,-3.5644 -0.13877,-3.85468 -0.43257,-5.08139c-0.39544,-1.65034 -0.50575,-2.77189 -0.641,-6.51896c-0.12035,-3.33971 -0.18132,-4.1493 -0.34395,-4.57645c-0.41767,-1.09634 -0.66621,-3.35028 -0.8451,-7.66029c-0.08456,-2.03413 -0.13009,-2.40708 -0.42904,-3.50152c-0.34368,-1.25841 -0.48325,-2.38566 -0.66052,-5.33427c-0.08375,-1.39339 -0.15693,-1.85416 -0.42878,-2.69763c-0.18051,-0.55942 -0.40357,-1.53515 -0.49627,-2.16829c-0.17563,-1.20123 -0.28215,-1.61998 -0.59655,-2.34365c-0.53611,-1.23511 -0.54071,-1.28987 -0.54071,-6.62927c0,-4.22789 0.02602,-5.0944 0.16262,-5.42154c0.08944,-0.21385 0.16262,-0.45615 0.16262,-0.53828c0,-1.36467 2.79764,-3.63378 5.12285,-4.15499c0.27104,-0.06071 1.14405,-0.32552 1.94008,-0.5887c0.7963,-0.26318 1.93546,-0.55454 2.53175,-0.64751c0.59628,-0.09297 1.45004,-0.29056 1.89725,-0.43881c1.13835,-0.37728 1.95877,-0.56782 3.08982,-0.7177c0.53665,-0.07101 1.53759,-0.3163 2.22412,-0.54532c0.85837,-0.28594 1.67473,-0.46862 2.61306,-0.58408c0.7505,-0.0927 1.83302,-0.31251 2.40544,-0.48868c1.13294,-0.34883 1.78071,-0.47946 3.27357,-0.65997c0.53665,-0.06505 1.54002,-0.28215 2.22955,-0.48272c0.76215,-0.22144 1.84657,-0.43339 2.76457,-0.54071c0.8459,-0.09866 1.98778,-0.31603 2.5949,-0.4941c1.5384,-0.45073 1.88018,-0.51334 3.52347,-0.64588c1.74087,-0.14013 1.84928,-0.15991 3.03696,-0.55075c0.98901,-0.32525 1.96691,-0.47784 4.1184,-0.64182c0.74535,-0.05692 1.62351,-0.18241 1.95147,-0.27889c1.47335,-0.43366 2.29269,-0.58707 3.72403,-0.69711c2.21111,-0.16995 3.1817,-0.30274 3.91919,-0.53557M266.78827,130.05667c-1.81025,-0.27293 -3.09225,-0.20138 -5.8636,0.32795c-1.27061,0.24258 -2.27562,0.39138 -3.68609,0.54586c-0.32795,0.03578 -1.71837,0.23445 -3.08982,0.44124c-1.37144,0.20681 -3.03018,0.44803 -3.68609,0.53584c-2.8635,0.38324 -3.75358,0.51389 -4.82444,0.7074c-0.62609,0.11329 -1.87015,0.30682 -2.76457,0.43014c-0.89442,0.12332 -2.4068,0.3659 -3.36085,0.53881c-0.95405,0.1732 -2.73476,0.49004 -3.95713,0.70388c-1.22237,0.21385 -2.41764,0.43176 -2.65616,0.48435c-0.23851,0.05259 -1.09228,0.22361 -1.89725,0.38027c-0.80498,0.15666 -2.5369,0.50305 -3.84871,0.76974c-1.31182,0.26671 -3.23888,0.6578 -4.28237,0.86921c-7.3047,1.4804 -9.15452,1.8837 -12.59343,2.74641c-4.08288,1.02425 -4.90739,1.31805 -5.35919,1.91026c-0.65645,0.8608 -0.77706,2.61604 -0.31874,4.63716c0.28377,1.25083 0.43935,2.31194 0.5437,3.7075c0.07589,1.01558 0.44748,4.43469 0.60088,5.52914c0.05854,0.41739 0.20301,1.75903 0.32091,2.9814c0.62826,6.50785 0.64805,6.54715 3.19633,6.2913c0.59818,-0.0599 2.0634,-0.15828 3.25596,-0.21845c3.13128,-0.15775 5.85954,-0.35749 9.10682,-0.66702c3.02721,-0.28866 6.21946,-0.24285 12.63029,0.18079c8.01021,0.5296 8.28314,0.72773 8.51135,6.17638c0.0374,0.89442 0.11329,2.16287 0.16859,2.81878c0.05556,0.65591 0.15042,1.87557 0.21114,2.71036c0.06044,0.83479 0.15801,1.95688 0.21655,2.49353c0.13145,1.20421 0.27131,3.29932 0.48841,7.31797c0.14799,2.73991 0.34558,5.48578 0.69764,9.70309c0.1404,1.68259 0.30329,5.03883 0.38406,7.91426c0.03523,1.25219 0.13389,4.05741 0.21981,6.23383c0.08564,2.17642 0.18105,4.61574 0.21222,5.42073c0.03117,0.80498 0.10571,3.65899 0.16588,6.34224c0.16967,7.58197 -0.23906,6.95669 4.60707,7.04586c1.43108,0.02629 3.26056,0.09893 4.06554,0.161c3.0665,0.23661 3.78584,0.27375 5.31231,0.27375c1.42972,0 3.09388,-0.07751 4.82444,-0.22496c0.35777,-0.03036 2.21165,-0.14879 4.11974,-0.26291c5.07542,-0.30357 5.16948,-0.34801 5.8926,-2.78219c0.17672,-0.5952 0.40303,-1.59098 0.50278,-2.21274c0.31901,-1.98886 0.59981,-3.48281 0.89496,-4.76237c0.24746,-1.07113 0.29001,-1.514 0.3041,-3.14402c0.00895,-1.04349 0.09704,-2.53148 0.19596,-3.30664c0.09866,-0.77516 0.25098,-1.97043 0.33826,-2.65616c0.08754,-0.68573 0.28594,-2.1737 0.44098,-3.30664c0.26046,-1.90132 0.27537,-2.21843 0.19515,-4.11974c-0.13552,-3.20988 -0.11004,-4.867 0.09351,-6.12542c0.10137,-0.62609 0.23743,-1.84575 0.30221,-2.71036c0.06505,-0.8646 0.26236,-2.92638 0.43881,-4.58186c0.33419,-3.13833 0.38352,-4.56344 0.21412,-6.20538c-0.05528,-0.53665 -0.22171,-2.14661 -0.36969,-3.57767c-0.14772,-1.43108 -0.32173,-3.45571 -0.38649,-4.4992c-0.06478,-1.04349 -0.14203,-2.28755 -0.1713,-2.76457c-0.15096,-2.44881 -0.60604,-7.78741 -0.75321,-8.83578c-0.02954,-0.2087 -0.10571,-1.20882 -0.1694,-2.2225c-0.12956,-2.06014 -0.30682,-3.7338 -0.69981,-6.61328c-0.14663,-1.0733 -0.36807,-2.82962 -0.49247,-3.90292c-0.12414,-1.0733 -0.36698,-2.79304 -0.53991,-3.82134c-0.17265,-1.02832 -0.38703,-2.39433 -0.47675,-3.0356c-0.08944,-0.64127 -0.23716,-1.50723 -0.32822,-1.92462c-0.09107,-0.41739 -0.35668,-1.63706 -0.59004,-2.71036c-0.65699,-3.01961 -1.64383,-5.68851 -2.46399,-6.66342c-0.54614,-0.64886 -1.93439,-1.15435 -4.04333,-1.47227" fill="#060606"/></g></g></svg>